<?xml version="1.0" standalone="no"?>
<!DOCTYPE svg PUBLIC "-//W3C//DTD SVG 20010904//EN"
 "http://www.w3.org/TR/2001/REC-SVG-20010904/DTD/svg10.dtd">
<svg version="1.0" xmlns="http://www.w3.org/2000/svg"
 width="1920.000000pt" height="1149.000000pt" viewBox="0 0 1920.000000 1149.000000"
 preserveAspectRatio="xMidYMid meet">

<g transform="translate(0.000000,1149.000000) scale(0.100000,-0.100000)"
fill="#000000" stroke="none">
<path d="M18920 10231 c0 -11 -4 -23 -10 -26 -6 -4 -3 -16 6 -31 20 -29 13
-40 -14 -25 -12 6 -25 11 -31 11 -18 0 -12 -18 8 -25 10 -3 30 -16 44 -29 26
-24 26 -24 4 -30 -11 -3 -18 -9 -14 -13 4 -4 -3 -13 -15 -20 -18 -10 -20 -12
-5 -13 20 0 22 -13 4 -32 -7 -7 -16 -21 -20 -32 -4 -10 -13 -16 -20 -13 -6 3
-21 8 -32 11 -15 5 -14 3 3 -5 34 -18 24 -45 -16 -41 -37 3 -39 -1 -12 -30 25
-27 22 -37 -19 -59 -19 -10 -27 -19 -19 -22 7 -2 10 -8 6 -12 -4 -4 -20 -3
-37 3 -33 12 -41 8 -41 -20 0 -16 -6 -19 -37 -16 -42 3 -57 -13 -21 -24 13 -3
17 -6 11 -7 -20 -2 -15 -21 5 -21 16 -1 16 -1 0 -11 -10 -5 -18 -15 -18 -22 0
-12 -44 -37 -66 -37 -7 0 -25 -12 -41 -26 -15 -14 -40 -28 -55 -31 -15 -3 -28
-9 -28 -12 0 -14 -41 -51 -57 -51 -14 0 -14 2 3 15 19 14 18 14 -3 15 -13 0
-23 3 -23 8 0 4 -14 14 -32 21 -18 8 -27 16 -20 19 17 5 15 22 -3 22 -8 0 -15
-7 -15 -15 0 -8 -5 -15 -11 -15 -5 0 -7 5 -4 10 3 6 1 10 -4 10 -6 0 -11 -9
-11 -21 0 -11 4 -18 8 -15 4 2 14 1 22 -5 12 -7 9 -9 -10 -9 -20 0 -22 -2 -10
-10 12 -7 12 -10 1 -10 -7 0 -11 -6 -8 -14 3 -7 -1 -23 -10 -35 -12 -18 -21
-21 -51 -15 -20 4 -39 10 -42 13 -3 3 -13 7 -24 9 -13 3 -10 -4 14 -28 l32
-31 -23 -26 c-21 -21 -30 -24 -64 -18 -32 5 -38 4 -27 -6 36 -37 -3 -65 -90
-63 -32 0 -58 -1 -58 -2 0 -2 19 -9 43 -15 31 -9 37 -14 22 -17 -11 -2 -32
-15 -47 -28 -16 -12 -37 -25 -48 -29 -11 -3 -20 -10 -20 -14 0 -5 -28 -21 -62
-36 -53 -24 -92 -56 -120 -99 -5 -8 -16 -7 -40 2 -24 9 -34 9 -39 0 -4 -7 -21
-9 -43 -5 -27 4 -36 2 -36 -9 0 -8 -6 -14 -13 -14 -8 0 -28 -20 -46 -45 -18
-25 -36 -45 -41 -45 -4 0 -11 -11 -14 -25 -5 -19 -13 -25 -35 -25 -33 0 -77
-35 -73 -58 2 -10 13 -25 25 -34 12 -10 16 -18 10 -18 -7 0 -13 -9 -13 -19 0
-11 -15 -28 -35 -41 -19 -12 -35 -26 -35 -31 0 -14 -56 -39 -88 -39 -16 0 -35
-7 -42 -15 -9 -11 -15 -12 -25 -2 -7 7 -11 15 -8 20 9 15 -48 6 -79 -13 -37
-22 -63 -26 -52 -8 5 8 0 9 -14 6 -12 -4 -25 -2 -28 3 -3 5 2 9 10 9 13 0 51
59 43 67 -2 2 -20 -3 -40 -12 -37 -15 -57 -35 -36 -35 7 0 4 -6 -6 -14 -16
-12 -17 -16 -6 -29 7 -9 10 -21 6 -27 -3 -5 1 -10 9 -10 18 0 21 -16 5 -25 -6
-4 -8 -13 -5 -20 2 -7 -5 -15 -17 -19 -16 -4 -19 -8 -10 -17 9 -9 7 -18 -10
-40 -11 -16 -27 -29 -34 -29 -7 0 -13 -11 -13 -24 0 -14 -5 -28 -10 -31 -6 -4
-8 -16 -4 -27 4 -13 1 -24 -7 -29 -23 -15 -37 -10 -41 14 -2 14 -10 23 -23 24
-11 0 -39 8 -62 17 -24 8 -43 13 -43 11 0 -2 11 -16 25 -30 15 -14 20 -25 13
-25 -8 -1 -7 -5 5 -14 19 -14 23 -36 7 -36 -5 0 -10 7 -10 15 0 8 -6 12 -14 9
-8 -3 -12 -17 -11 -34 2 -18 -2 -27 -9 -24 -6 2 -16 -6 -21 -18 -7 -16 -20
-24 -42 -26 -18 -2 -33 -8 -33 -14 0 -6 -8 -17 -17 -24 -14 -10 -15 -16 -5
-22 9 -6 7 -13 -8 -30 -23 -24 -28 -26 -50 -12 -11 7 -8 11 15 20 27 10 28 12
12 22 -14 8 -23 6 -36 -9 -10 -10 -16 -23 -14 -29 2 -6 -9 -14 -25 -17 -31 -6
-94 -61 -83 -73 3 -4 -11 -4 -31 0 -38 7 -55 -8 -23 -20 8 -4 15 -9 15 -14 0
-11 -61 -10 -84 1 -21 10 -21 10 -2 -5 11 -9 26 -16 33 -16 17 0 17 -17 0 -27
-16 -11 -67 -79 -67 -91 0 -11 -24 -22 -49 -22 -10 0 -28 -11 -41 -24 -12 -14
-35 -28 -51 -31 -23 -5 -29 -12 -29 -32 0 -18 -5 -24 -17 -21 -17 3 -103 -75
-103 -94 0 -5 -10 -12 -22 -17 -21 -8 -17 -10 27 -24 28 -9 43 -16 35 -17 -9
-1 -6 -5 8 -10 44 -18 20 -44 -47 -53 -25 -3 -48 -12 -52 -19 -4 -7 -16 -23
-27 -36 -12 -14 -18 -30 -15 -40 6 -15 5 -15 -10 -3 -15 12 -17 11 -17 -3 0
-9 -4 -16 -9 -16 -5 0 -11 -10 -13 -22 -2 -14 -9 -22 -19 -20 -12 2 -15 -5
-11 -30 l5 -32 -24 17 c-41 29 -48 30 -68 6 -11 -13 -15 -25 -10 -27 15 -6 10
-28 -10 -46 -11 -10 -25 -14 -36 -10 -15 6 -16 4 -6 -14 15 -28 14 -42 -4 -42
-8 0 -20 -9 -27 -20 -15 -24 -28 -26 -28 -5 0 21 -20 19 -21 -2 -1 -10 -1 -21
0 -26 1 -4 -14 -16 -31 -27 -18 -11 -31 -22 -28 -25 3 -3 -10 -14 -28 -25 -25
-16 -32 -25 -27 -40 5 -14 1 -22 -12 -26 -54 -18 -123 -55 -123 -67 0 -7 -32
-26 -71 -43 -73 -30 -93 -49 -68 -65 11 -7 11 -9 -3 -9 -15 0 -46 -39 -39 -48
2 -2 0 -6 -3 -9 -3 -4 -6 1 -6 10 0 12 -9 17 -30 17 -16 0 -30 5 -30 10 0 6
-7 10 -16 10 -13 0 -15 -8 -12 -34 4 -34 3 -34 -31 -28 l-34 5 21 -21 c25 -25
28 -48 10 -55 -10 -4 -10 -6 0 -6 6 -1 12 -5 12 -10 0 -4 -11 -6 -25 -3 -14 2
-25 0 -25 -6 0 -5 -14 -15 -30 -22 -24 -10 -37 -10 -56 -1 -34 15 -51 14 -51
-4 0 -8 4 -12 8 -9 5 3 17 -4 29 -16 11 -11 29 -20 41 -20 11 0 18 -4 14 -10
-3 -5 -12 -7 -20 -3 -8 3 -15 1 -15 -4 0 -6 -11 -15 -25 -21 -18 -8 -25 -8
-25 -1 0 6 -7 8 -17 5 -9 -4 -19 -2 -22 3 -4 6 -20 6 -41 1 -19 -4 -30 -8 -24
-9 13 -1 6 -51 -8 -51 -5 0 -8 8 -6 17 4 23 -32 30 -44 9 -5 -9 -16 -16 -23
-16 -8 0 -15 -4 -15 -9 0 -5 -9 -7 -21 -4 -11 3 -18 11 -15 19 3 9 -4 12 -25
12 -16 -1 -30 -7 -30 -15 -1 -7 -2 -19 -3 -25 0 -7 -18 -17 -38 -22 -26 -7
-38 -15 -38 -27 0 -10 -4 -21 -10 -24 -5 -3 -10 -2 -10 2 0 5 -22 16 -50 26
-45 16 -52 16 -80 2 -16 -8 -30 -20 -30 -25 0 -6 -5 -10 -11 -10 -6 0 -8 9 -4
20 5 15 2 20 -13 20 -11 0 -22 7 -26 15 -3 9 -20 16 -43 16 -22 1 -29 4 -16 6
28 6 53 33 29 33 -15 0 -21 13 -16 35 1 6 3 20 5 33 2 21 1 21 -19 9 -12 -8
-36 -12 -56 -10 -27 3 -31 2 -20 -6 14 -10 13 -12 -10 -15 -5 0 -9 -3 -8 -6 5
-15 -26 -50 -43 -50 -18 0 -21 -5 -17 -30 4 -25 1 -30 -24 -35 -16 -4 -25 -11
-22 -17 4 -7 -2 -8 -17 -3 l-24 8 20 -23 20 -22 -31 6 c-22 5 -35 2 -44 -9 -7
-8 -21 -15 -30 -15 -10 0 -20 -6 -22 -12 -3 -7 -19 -12 -39 -11 -26 2 -29 0
-14 -6 18 -8 17 -10 -13 -27 -23 -14 -31 -24 -28 -38 10 -38 -31 -73 -117
-100 -11 -3 -21 -15 -24 -26 -4 -15 -11 -19 -24 -15 -13 4 -19 1 -19 -9 0 -9
-9 -25 -20 -36 -15 -15 -18 -25 -11 -38 5 -9 11 -21 13 -27 1 -5 14 -10 28
-10 46 -1 68 -28 30 -38 -11 -3 -20 -14 -20 -25 0 -15 -5 -18 -25 -15 -13 3
-23 10 -22 17 1 6 -11 13 -27 14 -26 3 -28 2 -17 -12 12 -14 10 -16 -8 -16
-28 0 -27 -8 5 -41 l26 -28 -24 -23 c-13 -13 -27 -31 -31 -40 -3 -10 -13 -18
-22 -18 -8 0 -15 -4 -15 -10 0 -5 6 -10 14 -10 8 0 18 -5 22 -11 4 -7 1 -10
-7 -7 -8 3 -29 -6 -47 -19 -18 -14 -36 -22 -39 -19 -4 3 -1 6 6 6 7 0 10 4 6
10 -7 11 -33 3 -57 -17 -9 -8 -23 -12 -30 -8 -10 6 -10 5 -1 -5 9 -10 8 -16
-4 -28 -12 -12 -16 -13 -23 -2 -11 17 -59 5 -82 -22 -28 -33 -22 -38 37 -33
34 4 55 2 55 -5 0 -5 -10 -11 -22 -11 -13 -1 -32 -3 -43 -4 -11 -1 -33 -2 -48
-3 -37 -3 -25 -22 14 -22 19 0 28 -4 23 -11 -3 -6 -15 -8 -26 -6 -26 7 -18
-15 11 -29 23 -12 23 -12 2 -19 -11 -3 -25 -3 -31 0 -5 3 -10 1 -10 -4 0 -6
-9 -11 -20 -11 -21 0 -29 -20 -7 -20 6 0 -9 -12 -36 -27 -50 -28 -69 -62 -47
-87 10 -13 3 -14 -44 -9 -53 5 -56 5 -65 -21 -6 -14 -18 -26 -28 -26 -19 -1
-53 -22 -53 -34 0 -3 7 -6 15 -6 9 0 12 -6 9 -15 -4 -8 -16 -15 -28 -15 -68 0
-146 -49 -146 -91 0 -11 -7 -19 -15 -19 -8 0 -15 -4 -15 -9 0 -5 -11 -12 -25
-15 -14 -4 -25 -11 -25 -16 0 -6 -16 -10 -35 -10 -19 0 -35 -4 -35 -10 0 -5
-14 -10 -31 -10 -17 0 -28 -4 -24 -10 8 -13 95 -13 95 0 0 7 13 8 36 4 21 -4
35 -3 31 2 -6 10 48 13 58 3 3 -4 -9 -9 -27 -13 -26 -5 -30 -9 -18 -16 8 -5
23 -10 34 -10 15 0 16 -3 6 -14 -6 -8 -18 -12 -26 -9 -8 3 -14 -1 -14 -9 0 -7
-9 -20 -20 -28 -11 -8 -20 -21 -20 -28 0 -8 -6 -12 -15 -8 -9 3 -15 0 -15 -10
0 -17 -18 -38 -40 -47 -9 -3 -10 -6 -2 -6 24 -2 12 -21 -30 -48 -24 -16 -49
-34 -56 -40 -7 -7 -22 -13 -33 -13 -23 0 -24 -6 -3 -28 15 -15 15 -16 -2 -23
-13 -4 -3 -9 36 -16 46 -9 49 -11 20 -12 -47 -2 -80 -11 -80 -23 0 -10 52 -4
87 9 11 4 14 2 9 -5 -4 -7 -17 -12 -29 -12 -18 0 -19 -2 -7 -10 13 -8 13 -10
-2 -10 -14 0 -16 -6 -11 -30 5 -29 5 -30 -36 -30 -22 0 -41 -4 -41 -8 0 -5
-12 -15 -26 -22 -23 -13 -24 -15 -9 -26 18 -13 3 -30 -17 -18 -7 5 -9 0 -6
-14 5 -18 4 -19 -14 -9 -16 10 -22 9 -34 -7 -8 -11 -14 -15 -14 -8 0 7 -7 9
-22 3 -28 -10 -32 -72 -6 -79 21 -5 23 -13 6 -30 -18 -18 -28 -15 -28 8 0 11
-5 20 -11 20 -6 0 -9 -9 -6 -20 4 -18 0 -20 -36 -21 -23 -1 -34 -3 -24 -6 23
-6 22 -34 -3 -40 -25 -7 -25 -11 3 -36 l22 -19 -25 7 c-14 4 -28 13 -32 19 -5
7 -8 4 -8 -7 0 -32 -20 -7 -21 26 -1 26 -3 23 -9 -15 -10 -57 -18 -71 -36 -64
-8 3 -14 1 -14 -4 0 -6 8 -10 18 -11 11 -1 8 -4 -8 -8 -29 -8 -39 -40 -16 -53
9 -5 16 -20 16 -33 0 -17 6 -25 18 -26 16 0 16 -1 -1 -8 -10 -4 -18 -11 -17
-16 0 -6 -7 -12 -17 -14 -14 -3 -15 -1 -5 11 10 13 5 15 -33 13 -35 -1 -44 2
-40 12 2 8 0 11 -5 8 -16 -10 -12 -42 6 -49 23 -9 31 -7 14 4 -21 13 -7 22 19
12 l22 -8 -26 -14 c-19 -10 -28 -11 -37 -2 -16 16 -28 15 -28 -3 0 -8 -7 -15
-16 -15 -11 0 -14 -5 -10 -16 4 -10 2 -14 -6 -11 -7 2 -12 10 -10 16 1 7 -2
10 -8 6 -5 -3 -10 -15 -10 -26 0 -12 -7 -19 -20 -19 -11 0 -20 6 -20 13 0 8
-3 8 -9 -2 -5 -8 -7 -20 -4 -28 3 -9 -2 -16 -15 -19 -12 -4 -18 -12 -15 -23 3
-12 -7 -22 -32 -34 -20 -9 -43 -17 -51 -17 -8 0 -12 -4 -9 -10 3 -5 -2 -11
-12 -12 -51 -4 -75 -3 -79 4 -9 14 -34 9 -34 -7 0 -16 -16 -21 -22 -6 -2 5
-34 12 -73 14 -54 4 -65 2 -47 -6 30 -14 28 -24 -8 -29 -34 -5 -51 9 -29 23
10 6 5 9 -16 10 -16 0 -24 3 -17 6 21 8 13 23 -12 23 -14 0 -28 5 -31 10 -15
24 -47 4 -145 -90 -103 -98 -151 -127 -127 -76 6 13 25 29 42 35 28 12 28 13
10 21 -19 8 -8 14 21 11 17 -2 37 27 40 57 1 15 0 21 -3 13 -4 -10 -17 -1 -43
29 -20 23 -40 39 -43 34 -3 -6 8 -25 24 -44 16 -19 33 -40 39 -47 16 -19 12
-21 -29 -16 -35 5 -39 3 -45 -23 -5 -20 -10 -24 -16 -15 -4 7 -14 11 -21 9 -8
-3 -21 5 -31 16 -13 16 -17 18 -18 6 0 -9 5 -21 12 -28 20 -20 -4 -35 -37 -22
-25 10 -31 8 -53 -15 -21 -23 -29 -26 -63 -20 -25 4 -45 3 -54 -5 -11 -9 -13
-3 -11 40 3 65 -10 61 -53 -18 -32 -57 -54 -76 -63 -53 -2 5 -31 15 -66 22
-51 11 -65 11 -71 1 -4 -7 -30 -16 -57 -20 -46 -7 -49 -9 -49 -37 0 -17 6 -37
13 -46 12 -15 9 -16 -30 -7 -24 6 -59 15 -80 20 -25 7 -46 7 -67 0 -16 -6 -66
-10 -111 -9 -100 2 -107 -11 -7 -15 66 -3 72 -5 75 -25 2 -15 -2 -23 -12 -23
-10 0 -13 -6 -9 -16 4 -11 0 -14 -18 -11 -13 2 -18 2 -11 0 25 -9 11 -22 -18
-16 -19 3 -30 1 -30 -6 0 -6 -4 -11 -10 -11 -5 0 -7 7 -4 15 4 8 1 15 -5 15
-6 0 -11 -7 -11 -15 0 -18 -5 -19 -32 -4 -17 9 -18 13 -7 21 10 7 9 8 -6 3
-11 -5 -30 -8 -42 -9 -12 -1 -25 -4 -29 -9 -12 -11 -26 -8 -22 5 3 7 15 15 29
19 21 6 22 7 3 8 -11 1 -41 -5 -66 -13 -38 -11 -52 -11 -84 0 -27 9 -40 10
-45 2 -4 -6 -11 -8 -17 -4 -6 3 -13 2 -17 -4 -3 -5 -14 -10 -23 -10 -13 0 -14
2 -4 9 10 6 9 10 -7 14 -26 6 -29 1 -26 -40 2 -23 -2 -33 -12 -33 -8 0 -12 4
-9 9 3 4 -14 6 -37 4 -23 -2 -61 -5 -85 -6 -24 -2 -48 -10 -54 -18 -8 -11 -9
-10 -4 4 3 10 3 64 -1 120 -5 81 -8 96 -16 74 -5 -15 -13 -27 -18 -27 -5 0 -9
-6 -9 -14 0 -7 -8 -24 -19 -37 -15 -20 -20 -50 -25 -169 -11 -205 -50 -617
-60 -627 -4 -4 -5 61 -1 145 5 97 4 152 -3 152 -5 0 -21 -9 -35 -20 -30 -23
-39 -16 -40 35 -1 40 19 67 47 63 15 -2 22 -12 24 -30 5 -45 19 -32 25 25 15
125 20 267 10 267 -6 0 -13 9 -16 20 -3 10 0 18 5 17 16 -3 15 53 -1 62 -11 7
-13 29 -12 99 1 50 7 106 12 124 5 18 12 79 14 135 3 55 11 145 19 200 12 84
14 219 3 230 -8 8 -66 -20 -72 -34 -3 -9 -12 -71 -21 -137 -8 -67 -19 -157
-25 -201 -13 -93 -12 -159 2 -163 23 -9 7 -55 -30 -90 -31 -29 -38 -41 -30
-54 8 -15 14 -53 22 -138 0 -8 -2 -27 -6 -43 -7 -25 -6 -27 16 -22 21 6 24 3
24 -26 0 -18 5 -35 11 -37 18 -6 14 -32 -3 -32 -9 0 -27 -12 -42 -26 -14 -14
-28 -23 -31 -20 -3 3 -3 6 0 6 3 0 0 25 -7 55 -13 53 -13 55 8 55 16 0 18 3
10 11 -11 11 -125 19 -308 20 -48 1 -83 6 -88 13 -5 8 -10 7 -17 -4 -6 -10 -6
-16 0 -18 16 -6 11 -32 -6 -32 -8 0 -13 4 -10 9 11 17 -5 39 -25 34 -22 -6
-26 -23 -4 -23 8 0 15 -4 15 -10 0 -5 -27 -8 -62 -7 l-63 2 -3 49 c-2 32 1 52
10 57 9 6 9 9 1 9 -23 0 -30 134 -39 710 -4 302 -3 423 5 444 11 27 9 32 -26
68 -21 21 -48 41 -60 45 -14 3 -23 13 -23 24 0 24 -24 34 -79 34 -39 0 -47 -4
-83 -46 -36 -42 -38 -49 -32 -87 4 -23 15 -51 24 -62 19 -22 32 -91 29 -150
-1 -19 4 -95 11 -167 7 -73 9 -161 6 -195 -7 -62 -10 -153 -7 -276 1 -43 4
-61 12 -56 8 5 8 1 0 -14 -6 -11 -11 -32 -11 -46 0 -19 4 -24 16 -19 14 5 15
3 5 -15 -7 -14 -9 -41 -5 -72 5 -38 3 -50 -6 -50 -8 0 -11 -2 -8 -5 3 -4 2
-23 -3 -43 -4 -21 -4 -60 0 -87 5 -28 9 -42 10 -31 1 15 4 16 16 6 10 -8 15
-30 15 -61 0 -27 6 -53 14 -62 15 -15 19 -45 16 -117 -2 -38 -3 -41 -10 -20
-8 24 -8 23 -9 -7 -1 -26 2 -31 17 -27 16 5 16 5 0 -9 -10 -8 -18 -19 -18 -26
0 -15 -17 -14 -23 2 -2 6 -7 -28 -11 -76 -7 -84 -6 -89 16 -107 13 -11 18 -19
13 -20 -6 0 -16 5 -23 12 -9 9 -12 8 -12 -4 0 -9 5 -20 10 -23 6 -4 8 -15 5
-25 -5 -15 -2 -17 15 -13 16 4 19 2 13 -13 -5 -13 -3 -16 9 -11 14 5 15 1 7
-26 -5 -18 -9 -45 -10 -62 0 -26 -2 -28 -10 -10 -7 16 -8 12 -6 -18 2 -20 -1
-37 -5 -37 -4 0 -8 20 -8 44 0 64 -21 147 -39 154 -23 9 -41 28 -41 45 0 20
-33 11 -64 -18 -23 -21 -26 -22 -39 -6 -31 36 -27 59 20 111 25 27 50 50 56
50 6 0 19 8 30 17 15 13 21 15 24 6 3 -7 9 -13 14 -13 5 0 7 38 4 88 -3 48 -7
119 -10 157 -2 39 -4 72 -4 75 -2 10 -61 9 -61 -1 0 -6 -5 -7 -10 -4 -6 4 -8
10 -6 14 3 4 -13 8 -34 8 -29 1 -40 -2 -43 -15 -4 -16 -5 -15 -6 1 0 9 -8 17
-16 17 -9 0 -12 -6 -9 -15 8 -21 -12 -19 -28 3 -14 19 -58 27 -58 11 0 -6 -4
-8 -9 -4 -5 3 -12 1 -16 -5 -3 -5 1 -10 9 -10 9 0 16 -4 16 -10 0 -5 -21 -9
-47 -9 -27 1 -38 4 -26 6 22 4 37 28 27 44 -8 14 -26 -1 -20 -17 4 -9 -2 -14
-15 -14 -15 0 -19 5 -15 15 3 8 1 15 -4 15 -6 0 -10 -10 -11 -22 l0 -23 -9 23
c-5 12 -15 22 -22 22 -9 0 -9 -3 2 -10 13 -8 12 -10 -2 -10 -10 0 -18 5 -18
10 0 6 -4 10 -10 10 -5 0 -10 -9 -10 -19 0 -11 -6 -23 -12 -28 -18 -11 -68
-13 -68 -2 0 5 -7 6 -15 3 -8 -4 -12 -10 -9 -15 3 -5 -2 -9 -10 -9 -8 0 -17 4
-21 10 -4 6 -15 6 -31 0 -35 -14 -36 -13 -29 13 6 19 4 18 -13 -6 -17 -24 -20
-26 -32 -12 -7 8 -18 15 -24 15 -6 0 -5 -4 3 -9 9 -6 -1 -10 -33 -12 -25 -2
-48 0 -50 6 -3 6 -8 5 -14 -3 -5 -7 -16 -10 -24 -7 -9 4 -19 1 -23 -4 -3 -6
-9 -10 -13 -7 -4 2 -51 0 -106 -5 -59 -5 -106 -5 -116 1 -10 5 -21 6 -25 2 -3
-4 -59 -7 -123 -7 -65 0 -132 -4 -151 -9 -24 -6 -32 -5 -27 3 4 6 2 11 -3 11
-6 0 -11 -9 -11 -20 0 -18 7 -20 54 -20 34 0 56 5 60 13 3 6 5 3 3 -8 -2 -17
-12 -21 -62 -26 -41 -5 -62 -3 -67 5 -6 8 -8 8 -8 -1 0 -15 -46 -17 -55 -3 -3
6 -11 10 -17 10 -7 0 -6 -6 2 -15 10 -12 10 -15 -3 -15 -20 0 -31 31 -15 42
19 12 26 10 38 -10 9 -15 10 -14 8 8 -2 20 -9 26 -34 28 -26 3 -33 -1 -37 -20
-4 -14 -14 -24 -27 -25 -23 -2 -27 15 -6 23 17 7 17 44 0 44 -7 0 -14 -7 -16
-17 -3 -15 -4 -15 -17 0 -12 15 -10 18 18 23 17 4 31 12 31 20 0 10 -5 10 -26
-1 -15 -7 -34 -10 -43 -7 -13 6 -12 7 6 10 31 5 29 22 -1 22 -14 0 -31 8 -38
18 -7 9 -22 22 -33 28 -11 6 -20 17 -20 25 0 19 -75 110 -85 104 -9 -6 -60 55
-60 71 0 5 -20 31 -45 59 -26 29 -45 60 -45 73 0 35 -18 62 -41 62 -11 0 -17
5 -14 10 10 17 -16 41 -36 35 -21 -7 -41 19 -64 85 -18 50 -76 115 -110 124
-14 4 -25 16 -29 32 -4 16 -19 30 -39 39 -23 9 -42 30 -61 65 -15 28 -38 55
-51 60 -13 5 -29 19 -36 32 -15 29 -55 71 -159 171 -30 29 -93 92 -139 140
-89 93 -125 113 -148 82 -41 -58 21 -184 173 -345 28 -31 54 -66 58 -78 4 -12
13 -22 21 -22 8 0 16 -9 20 -19 3 -11 19 -34 35 -53 16 -18 30 -40 30 -48 0
-8 11 -28 25 -44 14 -16 25 -33 25 -37 0 -5 56 -78 125 -164 68 -85 136 -176
151 -202 33 -58 40 -69 109 -163 54 -74 145 -217 200 -315 25 -44 26 -48 7
-31 -22 19 -32 10 -12 -10 7 -7 0 -9 -22 -6 -28 4 -30 6 -13 13 17 6 17 8 3 8
-10 1 -18 6 -18 12 0 6 7 9 15 6 23 -9 25 7 6 37 -17 25 -20 26 -28 11 -9 -16
-10 -16 -17 0 -5 14 -9 15 -21 5 -8 -6 -19 -9 -25 -5 -5 3 -10 1 -10 -4 0 -6
5 -11 10 -11 6 0 10 -4 10 -10 0 -12 -22 -9 -32 4 -10 15 -42 16 -50 3 -5 -8
-8 -7 -8 5 0 23 15 31 61 31 22 0 39 4 39 8 0 5 -6 9 -12 10 -7 0 -3 5 10 11
12 6 22 15 22 20 0 11 -3 10 -50 -8 -23 -9 -44 -14 -47 -10 -4 3 -1 6 6 6 7 0
9 5 5 12 -5 8 0 9 15 5 14 -3 24 0 27 8 3 8 13 11 22 7 14 -5 15 -4 2 10 -8 9
-17 12 -18 7 -2 -5 -9 -6 -14 -3 -7 4 -8 2 -4 -4 4 -7 1 -12 -9 -12 -9 0 -13
4 -10 10 10 17 -53 5 -74 -14 -13 -12 -27 -15 -42 -11 -19 6 -21 4 -16 -16 4
-13 7 -33 7 -44 1 -19 1 -19 14 -2 11 14 15 15 19 5 4 -8 8 -5 12 10 4 12 14
22 23 22 12 0 13 -3 4 -12 -7 -7 -12 -21 -12 -31 0 -13 -5 -17 -16 -13 -9 3
-25 -1 -37 -9 -30 -21 -74 -19 -80 3 -4 15 -5 15 -6 1 -1 -22 -31 -34 -31 -12
0 12 -3 13 -14 4 -14 -12 -60 -11 -72 2 -13 12 -24 8 -18 -8 9 -23 -65 -17
-103 9 -34 22 -39 31 -24 40 11 7 42 -4 37 -13 -7 -11 22 -43 34 -36 7 4 8 11
1 18 -7 9 2 13 31 15 23 1 46 6 52 10 14 8 57 3 72 -9 8 -6 14 -4 17 5 4 9 2
18 -4 22 -7 4 -6 10 1 19 17 20 -16 32 -65 24 -34 -5 -23 -14 13 -10 6 1 12
-5 12 -14 0 -18 3 -17 -40 -5 -23 7 -36 6 -40 -1 -4 -5 -15 -10 -26 -9 -10 1
-38 1 -62 0 -24 0 -41 3 -38 9 7 11 -17 21 -47 20 -12 0 -16 -3 -9 -6 23 -9
12 -19 -23 -18 -19 1 -40 -2 -47 -7 -12 -7 34 -13 68 -9 6 1 17 -6 24 -14 9
-10 9 -15 1 -15 -6 0 -11 -4 -11 -10 0 -5 13 -7 29 -4 35 7 48 -17 26 -49 -13
-18 -15 -19 -15 -4 0 9 5 17 10 17 6 0 10 4 10 9 0 4 -19 11 -42 14 -24 3 -44
11 -46 16 -5 16 -23 13 -38 -6 -11 -15 -15 -16 -23 -4 -6 9 -18 11 -37 7 -16
-4 -60 -9 -98 -11 -50 -3 -72 -8 -78 -19 -10 -17 -38 -22 -38 -6 0 5 8 7 18 3
11 -4 14 -3 7 4 -16 15 -107 4 -101 -13 3 -7 1 -16 -4 -19 -6 -4 -10 3 -10 14
0 12 -5 21 -11 21 -8 0 -9 -11 -5 -31 3 -17 6 -36 6 -41 0 -6 6 -6 14 1 8 7
17 8 20 3 3 -5 -6 -14 -19 -20 -23 -10 -25 -9 -25 11 0 39 -11 65 -30 70 -11
3 -18 14 -18 30 0 17 5 24 14 20 7 -3 12 -10 11 -16 -1 -6 8 -13 21 -15 12 -2
22 1 22 7 0 6 -7 11 -15 11 -9 0 -18 7 -21 15 -7 17 -114 22 -114 5 0 -5 -7
-10 -16 -10 -8 0 -12 -4 -9 -10 4 -6 -7 -10 -24 -10 -17 0 -31 4 -31 10 0 5
-8 7 -18 4 -14 -5 -14 -4 -3 4 12 9 12 13 2 26 -8 9 -21 16 -30 15 -10 0 -11
-2 -3 -6 17 -7 15 -43 -2 -43 -8 0 -17 9 -21 19 -7 22 -42 34 -52 19 -3 -6 2
-17 12 -25 18 -12 18 -13 -3 -13 -12 0 -26 9 -32 20 -6 11 -15 18 -21 15 -12
-8 -12 8 2 22 7 7 4 10 -10 9 -12 0 -21 -4 -21 -8 0 -5 0 -15 0 -23 0 -8 9
-15 20 -15 11 0 20 -5 20 -11 0 -6 -23 -9 -62 -8 -41 2 -63 -1 -66 -9 -6 -19
-19 -14 -25 8 -5 19 -2 20 50 16 41 -4 54 -3 50 7 -2 6 -17 13 -33 13 -34 2
-105 -17 -86 -23 22 -8 13 -18 -18 -19 -18 -1 -27 3 -23 9 4 6 0 8 -10 4 -9
-3 -17 -1 -19 4 -4 12 -66 27 -90 21 -9 -2 -15 -9 -12 -17 4 -10 0 -12 -15 -8
-12 3 -21 1 -21 -4 0 -5 -21 -10 -47 -10 -27 -1 -40 1 -31 3 10 3 15 11 11 19
-4 12 -9 12 -33 0 -34 -18 -40 -18 -40 -5 0 6 9 10 20 10 11 0 20 5 20 11 0 7
-7 8 -18 4 -9 -4 -37 -11 -61 -16 -59 -12 -60 -15 -6 -23 25 -4 43 -12 40 -17
-4 -5 -15 -5 -28 2 -15 9 -22 9 -25 1 -5 -15 -42 8 -42 25 0 14 -36 18 -43 5
-6 -8 -110 -7 -125 1 -5 4 -20 4 -33 1 -13 -4 -66 -6 -117 -6 -76 1 -92 -1
-92 -14 0 -12 8 -13 35 -8 23 4 35 2 35 -5 0 -6 -13 -12 -30 -12 -16 -1 -43
-2 -60 -3 -19 -1 -30 4 -30 13 0 7 -6 11 -15 8 -8 -4 -17 -2 -20 4 -4 5 -10 7
-14 4 -5 -2 -22 0 -40 5 -17 5 -31 5 -31 1 0 -11 -114 -11 -121 0 -7 12 -39 1
-39 -13 0 -5 9 -6 21 -3 18 6 19 4 10 -12 -5 -11 -17 -25 -25 -33 -13 -10 -16
-10 -16 4 0 11 4 14 13 10 8 -5 7 -2 -2 9 -8 10 -16 15 -19 12 -3 -3 -11 0
-19 6 -7 6 -13 8 -13 5 0 -4 -9 -2 -20 4 -14 7 -20 7 -20 0 0 -18 -18 -11 -23
10 -3 13 -13 20 -29 19 -17 -1 -18 -3 -5 -6 9 -2 17 -11 17 -20 0 -9 -6 -13
-14 -10 -7 3 -19 0 -25 -6 -8 -8 -11 -5 -11 12 0 20 -2 22 -16 10 -13 -10 -17
-10 -25 2 -7 11 -9 11 -9 -3 0 -10 5 -18 12 -18 6 0 8 -3 5 -6 -4 -4 -14 -1
-23 7 -9 8 -24 14 -33 14 -9 0 -15 6 -14 12 2 7 -2 13 -7 13 -6 0 -10 -9 -10
-20 0 -11 -4 -20 -10 -20 -5 0 -10 -4 -10 -10 0 -5 9 -10 20 -10 11 0 20 -7
20 -15 0 -8 -4 -15 -8 -15 -13 0 -42 35 -42 51 0 11 -16 14 -73 14 -57 0 -71
-3 -69 -15 3 -11 -1 -10 -16 3 -20 18 -72 23 -72 7 0 -5 5 -10 10 -10 6 0 10
-4 10 -10 0 -19 -17 -10 -28 14 -8 19 -8 26 1 30 7 2 4 5 -5 5 -13 1 -18 -7
-18 -24 0 -30 -16 -33 -23 -4 -4 14 -10 18 -18 13 -9 -5 -10 -2 -6 9 3 9 2 19
-3 22 -6 4 -10 -1 -10 -9 0 -20 -21 -20 -68 1 -20 9 -40 16 -44 15 -3 -1 -12
5 -18 13 -7 8 -19 15 -28 15 -8 0 -12 3 -9 6 11 12 -57 42 -109 48 -27 3 -65
9 -84 13 l-35 7 30 7 c25 5 21 7 -25 9 l-55 3 40 7 40 7 -35 2 c-19 0 -52 6
-73 12 -31 8 -37 14 -32 30 5 16 1 19 -29 19 -20 0 -36 5 -36 10 0 6 -8 10
-19 10 -10 0 -24 7 -31 15 -7 8 -19 15 -27 15 -8 0 -11 5 -8 11 4 6 13 8 21 5
8 -3 14 -1 14 4 0 6 -12 10 -27 10 -53 0 -163 43 -163 64 0 7 -6 14 -12 13
-31 -1 -49 4 -44 11 3 5 -7 15 -22 23 -37 18 -64 47 -57 59 3 6 -1 10 -9 10
-9 0 -16 5 -16 10 0 6 -6 10 -12 9 -7 -1 -26 3 -41 9 -16 7 -36 12 -46 12 -21
0 -143 64 -136 72 3 3 -10 9 -30 12 -19 4 -33 11 -30 17 4 5 -3 9 -14 9 -12 0
-21 5 -21 10 0 6 -7 10 -16 10 -9 0 -18 9 -21 19 -3 13 -20 23 -50 30 -44 11
-83 31 -113 58 -48 43 -67 54 -102 59 -21 4 -38 11 -38 15 0 5 -16 17 -35 26
-19 9 -35 20 -35 25 0 4 -7 8 -15 8 -8 0 -15 4 -15 9 0 5 -15 14 -34 21 -18 6
-42 20 -51 30 -10 11 -21 20 -26 20 -9 0 -139 78 -161 97 -9 8 -22 15 -30 17
-7 1 -43 16 -79 34 -36 18 -69 32 -74 32 -5 0 -43 22 -84 48 -122 78 -132 84
-216 128 -44 22 -111 64 -148 93 -38 28 -83 58 -100 67 -18 9 -35 22 -39 28
-4 6 -8 -1048 -8 -2341 l0 -2353 6175 0 c3396 0 6175 3 6175 8 0 4 37 15 83
26 45 10 87 22 93 27 6 5 33 11 60 14 49 5 49 5 19 -9 -16 -9 -40 -15 -53 -16
-13 0 -21 -4 -18 -8 2 -4 -10 -14 -27 -22 -28 -13 280 -15 2587 -18 1819 -1
2623 1 2632 8 8 8 14 8 19 0 4 -6 115 -10 331 -10 l324 0 0 24 c0 14 4 27 9
31 6 3 8 -8 6 -25 l-4 -30 359 0 c333 0 384 4 350 25 -5 3 -10 14 -10 23 0 12
3 13 12 4 9 -9 14 -7 24 6 12 15 13 12 14 -20 0 -31 4 -38 20 -38 20 0 20 17
20 5000 l0 5000 -23 -5 c-12 -4 -36 -1 -52 6 -29 12 -29 13 -6 17 13 2 30 9
38 15 33 28 44 40 39 44 -9 9 -112 -27 -178 -62 -75 -39 -90 -43 -81 -17 14
37 42 56 78 54 26 -2 35 1 35 13 0 8 6 15 13 15 7 1 6 6 -5 14 -19 14 -81 10
-72 -5 3 -5 -1 -9 -8 -9 -8 0 -15 11 -16 25 -1 14 3 25 9 25 6 0 9 10 8 23 -2
12 1 28 5 36 7 11 3 13 -22 8 -37 -8 -42 0 -9 13 l22 9 -22 0 c-16 1 -21 6
-17 16 4 8 1 15 -5 15 -6 0 -11 -9 -11 -19z m-715 -861 c-3 -5 -11 -10 -16
-10 -6 0 -7 5 -4 10 3 6 11 10 16 10 6 0 7 -4 4 -10z m-1095 -762 c8 -4 -19
-5 -62 -5 -71 2 -91 17 -21 17 17 0 35 5 39 12 5 8 10 7 18 -4 6 -8 18 -17 26
-20z m1583 -35 c-7 -2 -21 -2 -30 0 -10 3 -4 5 12 5 17 0 24 -2 18 -5z m-1868
-1063 c3 -5 2 -10 -4 -10 -5 0 -13 5 -16 10 -3 6 -2 10 4 10 5 0 13 -4 16 -10z
m642 -26 c-3 -3 -12 -4 -19 -1 -8 3 -5 6 6 6 11 1 17 -2 13 -5z m-487 -24 c0
-5 -5 -10 -11 -10 -5 0 -7 5 -4 10 3 6 8 10 11 10 2 0 4 -4 4 -10z m-13 -162
c-2 -13 -4 -5 -4 17 -1 22 1 32 4 23 2 -10 2 -28 0 -40z m870 -10 c-3 -8 -6
-5 -6 6 -1 11 2 17 5 13 3 -3 4 -12 1 -19z m-872 -38 c3 -5 1 -10 -4 -10 -6 0
-11 5 -11 10 0 6 2 10 4 10 3 0 8 -4 11 -10z m807 -132 c-7 -7 -12 -8 -12 -2
0 14 12 26 19 19 2 -3 -1 -11 -7 -17z m-1262 -49 c0 -18 -4 -28 -10 -24 -5 3
-10 20 -10 36 0 18 4 28 10 24 6 -3 10 -20 10 -36z m442 -104 c-9 -35 -10 -31
-9 40 0 44 3 85 6 90 10 17 12 -88 3 -130z m793 57 c-9 -29 -20 -52 -25 -52
-8 0 -1 27 25 99 3 8 8 12 10 9 3 -2 -2 -28 -10 -56z m-1226 -185 c0 -95 -14
-223 -18 -177 -4 42 -6 291 -3 295 16 15 22 -20 21 -118z m-230 -2 l0 -20 -9
20 c-5 11 -9 27 -9 35 -1 13 0 13 9 0 5 -8 9 -24 9 -35z m8 -97 c-2 -13 -4 -5
-4 17 -1 22 1 32 4 23 2 -10 2 -28 0 -40z m140 -60 c-3 -8 -6 -5 -6 6 -1 11 2
17 5 13 3 -3 4 -12 1 -19z m28 -148 c3 -5 1 -10 -4 -10 -6 0 -11 5 -11 10 0 6
2 10 4 10 3 0 8 -4 11 -10z m5 -89 c0 -5 -7 -12 -16 -15 -24 -9 -28 -7 -14 9
14 17 30 20 30 6z m270 -65 c0 -3 -4 -8 -10 -11 -5 -3 -10 -1 -10 4 0 6 5 11
10 11 6 0 10 -2 10 -4z m-2900 -36 c0 -5 -5 -10 -11 -10 -5 0 -7 5 -4 10 3 6
8 10 11 10 2 0 4 -4 4 -10z m3307 -56 c-3 -3 -12 -4 -19 -1 -8 3 -5 6 6 6 11
1 17 -2 13 -5z m-2672 -44 c3 -5 2 -10 -4 -10 -5 0 -13 5 -16 10 -3 6 -2 10 4
10 5 0 13 -4 16 -10z m502 -52 c-3 -8 -6 -5 -6 6 -1 11 2 17 5 13 3 -3 4 -12
1 -19z m1733 -204 c0 -2 -7 -1 -15 1 -8 3 -22 7 -31 10 -8 3 -12 9 -9 15 5 8
55 -15 55 -26z m-525 -104 c3 -5 -1 -10 -10 -10 -9 0 -13 5 -10 10 3 6 8 10
10 10 2 0 7 -4 10 -10z m89 -16 c5 -14 4 -15 -9 -4 -17 14 -19 20 -6 20 5 0
12 -7 15 -16z m-28 -30 c-5 -14 -4 -15 8 -5 10 8 16 9 21 1 10 -16 -5 -31 -26
-25 -13 5 -19 2 -19 -10 0 -10 -7 -15 -17 -13 -25 5 -27 24 -4 47 25 25 46 27
37 5z m-74 -39 c-3 -5 -7 -4 -10 3 -6 20 -19 13 -26 -14 -8 -29 -19 -25 -21 8
-3 35 16 48 41 29 12 -9 19 -20 16 -26z m293 34 c11 -17 -1 -21 -15 -4 -8 9
-8 15 -2 15 6 0 14 -5 17 -11z m-285 -89 c0 -5 -5 -10 -11 -10 -5 0 -7 5 -4
10 3 6 8 10 11 10 2 0 4 -4 4 -10z m-102 -22 c-8 -12 -20 -24 -27 -26 -9 -3
-7 5 4 22 10 14 22 26 27 26 6 0 4 -10 -4 -22z m-49 -69 c-24 -15 -29 -10 -11
11 10 12 18 16 21 9 2 -6 -3 -15 -10 -20z m-2814 -79 c-3 -5 -12 -10 -20 -10
-8 0 -17 5 -20 10 -4 6 5 10 20 10 15 0 24 -4 20 -10z m5 -70 c0 -5 -10 -10
-22 -9 -22 0 -22 1 -3 9 11 5 21 9 23 9 1 1 2 -3 2 -9z m-73 -16 c-3 -3 -12
-4 -19 -1 -8 3 -5 6 6 6 11 1 17 -2 13 -5z m-17 -45 c-12 -21 -49 -40 -62 -32
-13 7 -9 41 5 46 6 3 25 6 40 6 25 1 27 -1 17 -20z m-82 -27 c2 -7 -1 -12 -8
-12 -6 0 -9 4 -6 9 4 5 1 12 -4 14 -6 3 -5 4 2 3 6 -1 14 -8 16 -14z m2952 4
c0 -3 -4 -8 -10 -11 -5 -3 -10 -1 -10 4 0 6 5 11 10 11 6 0 10 -2 10 -4z m-30
-37 c0 -6 -4 -7 -10 -4 -5 3 -10 11 -10 16 0 6 5 7 10 4 6 -3 10 -11 10 -16z
m-2990 -63 c0 -2 -7 -6 -15 -10 -8 -3 -15 -1 -15 4 0 6 7 10 15 10 8 0 15 -2
15 -4z m-140 -106 c0 -20 -5 -30 -15 -30 -8 0 -15 4 -15 10 0 5 -7 7 -16 3
-13 -5 -13 -7 -2 -14 17 -12 -7 -29 -40 -29 -19 0 -23 5 -20 23 2 13 10 22 21
22 10 0 25 9 33 19 8 11 14 16 14 11 0 -5 5 -4 12 3 19 19 28 14 28 -18z m36
-15 c-3 -9 0 -15 10 -15 8 0 13 -4 9 -10 -9 -14 -32 -1 -38 21 -3 12 0 19 10
19 9 0 13 -6 9 -15z m5599 -65 c3 -5 1 -10 -4 -10 -6 0 -11 5 -11 10 0 6 2 10
4 10 3 0 8 -4 11 -10z m-5677 -12 c-6 -18 -28 -21 -28 -4 0 9 7 16 16 16 9 0
14 -5 12 -12z m-100 -20 c-3 -15 -38 -31 -47 -22 -6 6 27 34 41 34 4 0 7 -6 6
-12z m5792 2 c0 -5 -4 -10 -10 -10 -5 0 -10 5 -10 10 0 6 5 10 10 10 6 0 10
-4 10 -10z m-5802 -47 c-10 -2 -28 -2 -40 0 -13 2 -5 4 17 4 22 1 32 -1 23 -4z
m62 -3 c0 -5 -2 -10 -4 -10 -3 0 -8 5 -11 10 -3 6 -1 10 4 10 6 0 11 -4 11
-10z m5220 -110 c0 -5 -4 -10 -10 -10 -5 0 -10 5 -10 10 0 6 5 10 10 10 6 0
10 -4 10 -10z m-9763 -272 c-3 -7 -5 -2 -5 12 0 14 2 19 5 13 2 -7 2 -19 0
-25z m3980 -290 c-3 -8 -6 -5 -6 6 -1 11 2 17 5 13 3 -3 4 -12 1 -19z m-82
-78 c3 -5 -1 -10 -10 -10 -9 0 -13 5 -10 10 3 6 8 10 10 10 2 0 7 -4 10 -10z
m685 -4 c0 -3 -4 -8 -10 -11 -5 -3 -10 -1 -10 4 0 6 5 11 10 11 6 0 10 -2 10
-4z m3394 -52 c4 -10 1 -14 -6 -12 -15 5 -23 28 -10 28 5 0 13 -7 16 -16z
m-4154 -44 c0 -5 -4 -10 -10 -10 -5 0 -10 5 -10 10 0 6 5 10 10 10 6 0 10 -4
10 -10z m3790 -24 c0 -3 -4 -8 -10 -11 -5 -3 -10 -1 -10 4 0 6 5 11 10 11 6 0
10 -2 10 -4z m-3750 -10 c0 -3 -4 -8 -10 -11 -5 -3 -10 -1 -10 4 0 6 5 11 10
11 6 0 10 -2 10 -4z m217 -28 c-3 -8 -6 -5 -6 6 -1 11 2 17 5 13 3 -3 4 -12 1
-19z m1168 -16 c-3 -3 -11 0 -18 7 -9 10 -8 11 6 5 10 -3 15 -9 12 -12z
m-1205 1 c0 -13 -14 -28 -28 -31 -10 -2 -10 2 0 18 13 20 28 27 28 13z m-38
-73 c-12 -11 -24 -20 -27 -20 -3 0 -5 9 -5 20 0 15 7 20 27 20 l27 0 -22 -20z
m-382 -80 c0 -5 -8 -10 -17 -10 -15 0 -16 2 -3 10 19 12 20 12 20 0z m-360
-245 c-7 -9 -15 -13 -17 -11 -7 7 7 26 19 26 6 0 6 -6 -2 -15z m-34 -51 c-4
-9 -9 -15 -11 -12 -3 3 -3 13 1 22 4 9 9 15 11 12 3 -3 3 -13 -1 -22z m-337
-16 c-9 -5 -4 -6 14 -2 16 4 27 2 27 -4 0 -17 -19 -24 -46 -18 -21 6 -22 9
-12 26 7 10 16 16 21 13 5 -3 3 -10 -4 -15z m135 13 c7 -11 -3 -41 -14 -41
-11 0 -21 30 -14 41 3 5 9 9 14 9 5 0 11 -4 14 -9z m306 -1 c0 -5 -2 -10 -4
-10 -2 0 -12 -3 -22 -7 -16 -6 -17 -5 -4 10 17 19 30 22 30 7z m7010 0 c-8 -5
-19 -10 -25 -10 -5 0 -3 5 5 10 8 5 20 10 25 10 6 0 3 -5 -5 -10z m-7375 -20
c3 -5 1 -10 -4 -10 -6 0 -11 5 -11 10 0 6 2 10 4 10 3 0 8 -4 11 -10z m5232 4
c-3 -3 -12 -4 -19 -1 -8 3 -5 6 6 6 11 1 17 -2 13 -5z m-4777 -44 c9 0 9 -5
-1 -17 -12 -15 -12 -16 7 -11 12 3 28 2 35 -3 11 -8 10 -12 -5 -24 -16 -12
-21 -12 -40 1 -11 8 -21 22 -21 31 0 9 -6 18 -12 20 -9 3 -11 -4 -7 -26 6 -26
4 -31 -14 -31 -20 0 -32 18 -32 46 0 9 5 12 10 9 6 -3 10 3 10 14 0 27 22 33
42 10 9 -10 22 -19 28 -19z m-934 -7 c-4 -4 -11 -1 -16 7 -16 25 -11 35 7 17
9 -9 13 -20 9 -24z m724 -21 l0 -52 36 15 c51 21 78 20 69 -2 -12 -32 -10 -36
15 -44 22 -6 21 -7 -12 -8 -20 -1 -40 -6 -43 -11 -5 -8 -11 -7 -20 0 -8 7 -18
9 -23 6 -18 -11 -33 22 -34 73 0 50 0 50 -21 36 -27 -19 -48 -19 -23 0 10 8
16 20 14 27 -4 8 3 13 18 13 22 0 24 -4 24 -53z m-265 28 c3 -5 1 -10 -4 -10
-6 0 -11 5 -11 10 0 6 2 10 4 10 3 0 8 -4 11 -10z m154 -22 c6 -18 7 -28 2
-23 -10 12 -25 55 -18 55 3 0 10 -15 16 -32z m953 0 c-7 -7 -12 -8 -12 -2 0
14 12 26 19 19 2 -3 -1 -11 -7 -17z m-3983 -100 c-1 -111 -1 -112 -13 -63 -7
28 -9 54 -4 60 4 5 8 33 8 62 0 29 2 53 5 53 3 0 5 -51 4 -112z m2818 85 c21
-10 39 -18 39 -18 1 0 5 -10 8 -22 6 -20 4 -23 -18 -23 -14 0 -37 11 -51 24
-15 14 -32 27 -38 30 -8 3 -7 8 3 15 19 13 13 14 57 -6z m1143 -33 c-6 -12
-14 -19 -17 -17 -2 3 1 15 7 27 6 12 14 19 17 17 2 -3 -1 -15 -7 -27z m-560
-20 c0 -5 -4 -10 -10 -10 -5 0 -10 5 -10 10 0 6 5 10 10 10 6 0 10 -4 10 -10z
m375 -40 c-2 -16 -9 -39 -16 -51 -11 -22 -12 -22 -23 -2 -8 14 -17 18 -36 13
-21 -5 -25 -12 -25 -41 0 -30 -3 -34 -25 -31 -14 2 -30 10 -36 18 -15 19 -26
18 -23 -3 1 -10 -1 -30 -5 -45 -7 -22 -14 -28 -36 -28 -28 0 -48 24 -30 35 6
4 7 17 4 31 -3 13 -2 24 3 24 6 0 15 10 21 23 l11 22 0 -24 c1 -19 4 -21 16
-11 8 6 19 9 24 6 10 -7 24 10 27 32 3 15 -8 16 -23 1 -13 -13 -33 -4 -33 16
0 21 17 27 41 14 14 -7 24 -8 28 -1 3 6 20 13 36 16 24 5 26 4 10 -3 l-20 -10
20 0 c11 0 31 6 45 13 39 22 49 19 45 -14z m-1637 -130 l0 -35 -9 40 c-4 22
-7 63 -7 90 l1 50 7 -55 c5 -30 8 -71 8 -90z m1348 107 c18 -11 30 -27 27 -34
-3 -8 -13 -5 -31 12 -31 29 -42 31 -42 10 0 -8 -3 -15 -6 -15 -9 0 -30 24 -37
43 -6 16 -3 18 26 12 17 -4 46 -16 63 -28z m-1986 -3 c0 -12 7 -15 30 -12 17
3 30 1 30 -4 0 -5 9 -4 21 2 11 7 28 8 37 5 11 -5 -10 -14 -60 -26 -85 -20
-195 -67 -242 -102 -45 -34 -60 -42 -52 -29 4 7 1 12 -8 12 -9 0 -16 5 -16 10
0 6 12 10 28 10 15 0 41 9 57 21 17 11 40 24 53 29 12 5 22 16 22 25 0 20 -17
19 -30 -2 -10 -16 -10 -16 -8 2 2 16 -2 19 -22 17 -20 -2 -22 -1 -10 7 13 9
13 11 0 11 -9 0 -21 -5 -28 -12 -9 -9 -12 -8 -12 5 0 13 9 17 34 17 51 0 86
-16 86 -40 0 -16 4 -18 18 -11 9 5 26 12 37 16 15 5 16 8 6 14 -10 7 -9 10 3
14 22 9 20 28 -1 21 -15 -5 -16 -4 -3 5 21 15 30 14 30 -5z m1145 -54 c3 -5 1
-10 -4 -10 -6 0 -11 5 -11 10 0 6 2 10 4 10 3 0 8 -4 11 -10z m30 0 c3 -5 1
-10 -4 -10 -6 0 -11 5 -11 10 0 6 2 10 4 10 3 0 8 -4 11 -10z m-1479 -27 c4
-13 10 -20 15 -18 4 3 6 12 2 20 -3 8 -1 15 5 15 13 0 20 -20 14 -42 -2 -11
-14 -18 -28 -18 -15 0 -22 5 -18 13 3 10 -6 14 -31 15 -32 1 -71 23 -60 33 2
3 24 4 50 5 39 0 46 -3 51 -23z m2214 13 c0 -3 -4 -8 -10 -11 -5 -3 -10 -1
-10 4 0 6 5 11 10 11 6 0 10 -2 10 -4z m1093 -22 c-3 -9 0 -19 6 -24 7 -4 14
-27 17 -51 l4 -44 -12 45 -12 45 -4 -37 c-2 -21 -7 -38 -13 -38 -13 0 -11 -34
3 -48 20 -20 3 -23 -19 -2 -21 19 -22 50 -2 75 4 6 11 30 15 53 4 23 10 42 15
42 5 0 6 -7 2 -16z m-3863 -30 c0 -2 -35 -3 -77 -2 -65 1 -70 2 -33 7 44 6
110 3 110 -5z m73 -1 c-13 -2 -33 -2 -45 0 -13 2 -3 4 22 4 25 0 35 -2 23 -4z
m-993 -23 c9 -16 8 -18 -5 -14 -8 4 -15 12 -15 20 0 20 7 17 20 -6z m3698 -13
c2 -15 8 -27 14 -27 7 0 6 -5 -2 -15 -10 -11 -9 -18 4 -30 8 -9 13 -22 9 -31
-4 -11 -10 -9 -30 12 -20 22 -22 28 -11 42 11 13 11 14 -2 10 -10 -3 -15 -19
-15 -49 0 -45 -9 -69 -25 -69 -5 0 -7 7 -4 15 5 11 1 14 -12 9 -18 -5 -18 -5
-1 6 12 8 15 16 9 27 -10 18 -4 63 9 63 5 0 9 4 9 9 0 5 5 22 10 36 12 33 34
28 38 -8z m272 19 c0 -8 8 -17 18 -19 13 -4 13 -5 -4 -6 -14 -1 -24 6 -27 19
-3 11 -1 20 4 20 5 0 9 -6 9 -14z m-4155 -16 c-3 -5 -10 -10 -16 -10 -5 0 -9
5 -9 10 0 6 7 10 16 10 8 0 12 -4 9 -10z m1565 -10 c0 -5 -9 -10 -20 -10 -11
0 -20 5 -20 10 0 6 9 10 20 10 11 0 20 -4 20 -10z m2657 -32 c-3 -7 -5 -2 -5
12 0 14 2 19 5 13 2 -7 2 -19 0 -25z m-2540 -15 c-20 -20 -39 -34 -42 -31 -6
5 61 68 72 68 3 0 -10 -16 -30 -37z m3153 -67 c0 -11 3 -16 7 -13 5 6 33 -36
33 -49 0 -14 -20 0 -25 17 -4 11 -9 18 -12 15 -9 -9 -53 51 -55 77 -1 16 -7
23 -15 20 -14 -5 -18 9 -6 21 10 10 72 -65 73 -88z m-6543 78 c-3 -3 -12 -4
-19 -1 -8 3 -5 6 6 6 11 1 17 -2 13 -5z m1650 0 c-3 -3 -12 -4 -19 -1 -8 3 -5
6 6 6 11 1 17 -2 13 -5z m3463 -4 c12 -8 11 -10 -7 -10 -13 0 -23 5 -23 10 0
13 11 13 30 0z m-21 -24 c10 -12 8 -13 -9 -9 -25 7 -37 23 -17 23 8 0 20 -6
26 -14z m-4212 -16 c-1 -23 -22 -27 -30 -6 -6 16 1 26 19 26 7 0 12 -9 11 -20z
m2379 0 c0 -11 -4 -20 -8 -20 -4 0 -8 9 -8 20 0 11 4 20 8 20 4 0 8 -9 8 -20z
m-3251 -10 c-27 -12 -43 -12 -25 0 8 5 22 9 30 9 10 0 8 -3 -5 -9z m6475 0 c0
-5 -4 -10 -10 -10 -5 0 -10 5 -10 10 0 6 5 10 10 10 6 0 10 -4 10 -10z m-3540
-37 c-11 -17 -11 -17 -6 0 3 10 6 24 7 30 0 9 2 9 5 0 3 -7 0 -20 -6 -30z
m370 28 c0 -14 -68 -53 -80 -46 -5 3 -10 13 -10 21 0 12 7 14 30 9 23 -5 30
-3 30 9 0 9 7 16 15 16 8 0 15 -4 15 -9z m828 -16 c-4 -16 -1 -25 7 -25 8 0
11 -8 8 -20 -5 -18 -14 -24 -33 -22 -3 0 -7 -11 -8 -26 -1 -15 -7 -37 -14 -49
-13 -26 -5 -41 14 -26 26 19 76 15 98 -7 18 -18 20 -24 9 -31 -9 -6 -19 -2
-29 12 -15 19 -16 19 -18 -13 -2 -17 -4 -33 -6 -35 -2 -2 -22 -1 -44 3 -49 8
-76 45 -87 119 -6 36 -4 50 10 65 22 24 35 26 35 5 0 -8 3 -15 8 -15 18 1 30
18 36 53 4 20 9 37 13 37 3 0 3 -11 1 -25z m-2978 11 c0 -3 -4 -8 -10 -11 -5
-3 -10 -1 -10 4 0 6 5 11 10 11 6 0 10 -2 10 -4z m4267 -2 c-3 -3 -12 -4 -19
-1 -8 3 -5 6 6 6 11 1 17 -2 13 -5z m6733 -4 c0 -5 -2 -10 -4 -10 -3 0 -8 5
-11 10 -3 6 -1 10 4 10 6 0 11 -4 11 -10z m-13158 -58 c2 -23 6 -42 11 -42 4
0 7 -5 7 -11 0 -8 -4 -8 -12 -2 -7 5 -25 8 -41 7 -25 -3 -27 0 -21 24 5 25 4
25 -9 10 -15 -19 -32 -25 -22 -8 3 6 -3 10 -14 10 -12 0 -21 -4 -21 -10 0 -5
-7 -10 -15 -10 -8 0 -15 6 -15 13 0 9 -3 8 -9 -2 -5 -7 -13 -11 -19 -7 -6 4
-8 -3 -5 -16 5 -20 2 -19 -25 9 -17 18 -33 29 -36 24 -4 -5 0 -12 6 -15 7 -3
-3 -3 -22 0 -26 4 -31 3 -20 -5 13 -9 13 -11 -2 -11 -9 0 -22 -2 -30 -5 -9 -4
-14 3 -16 22 -1 21 0 24 8 13 6 -10 10 -11 10 -2 0 7 13 12 32 12 36 0 28 15
-12 23 -14 3 -4 5 23 4 32 0 47 -5 47 -14 0 -7 4 -13 10 -13 5 0 7 7 4 15 -4
8 -1 15 5 15 6 0 11 -7 11 -15 0 -8 5 -15 11 -15 6 0 9 7 5 15 -3 8 -1 15 4
15 6 0 10 -6 10 -13 0 -10 12 -12 48 -7 57 7 67 11 66 28 -1 6 2 12 7 12 5 0
9 -4 9 -10 0 -5 5 -10 11 -10 6 0 8 7 4 18 -4 11 -3 14 4 7 6 -6 11 -29 13
-53z m1771 51 c-7 -2 -21 -2 -30 0 -10 3 -4 5 12 5 17 0 24 -2 18 -5z m111 -8
c-4 -8 -10 -12 -15 -9 -11 6 -2 24 11 24 5 0 7 -7 4 -15z m3433 -7 c-3 -8 -6
-5 -6 6 -1 11 2 17 5 13 3 -3 4 -12 1 -19z m-5897 1 c0 -5 4 -8 9 -4 5 3 12 1
16 -5 4 -6 -5 -10 -20 -10 -14 0 -24 4 -20 9 3 5 -3 12 -12 14 -14 4 -13 5 5
6 12 0 22 -4 22 -10z m2376 -26 c-11 -11 -19 6 -11 24 8 17 8 17 12 0 3 -10 2
-21 -1 -24z m54 27 c0 -5 -4 -10 -9 -10 -6 0 -13 5 -16 10 -3 6 1 10 9 10 9 0
16 -4 16 -10z m70 1 c0 -5 -7 -11 -15 -15 -15 -5 -20 5 -8 17 9 10 23 9 23 -2z
m4526 -29 c-17 -16 -18 -16 -5 5 7 12 15 20 18 17 3 -2 -3 -12 -13 -22z m6664
18 c0 -5 -4 -10 -10 -10 -5 0 -10 5 -10 10 0 6 5 10 10 10 6 0 10 -4 10 -10z
m-14220 -13 c0 -5 4 -6 8 -3 4 2 27 7 50 9 38 5 42 3 42 -16 0 -20 0 -20 -14
-2 -11 15 -17 17 -27 8 -8 -7 -45 -10 -89 -9 -41 1 -81 -2 -88 -7 -16 -13 -24
-4 -16 16 5 13 19 16 70 14 35 -1 64 -6 64 -10z m160 -3 c0 -2 -12 -4 -26 -4
-14 0 -23 4 -20 9 6 8 46 4 46 -5z m630 6 c0 -5 -6 -10 -14 -10 -8 0 -18 5
-21 10 -3 6 3 10 14 10 12 0 21 -4 21 -10z m2065 0 c-3 -5 -16 -10 -28 -9 -21
0 -21 1 -2 9 28 12 37 12 30 0z m384 -20 c11 0 21 -5 21 -11 0 -6 -7 -8 -16
-5 -9 3 -21 6 -29 6 -7 0 -15 10 -18 23 -5 20 -5 20 7 5 7 -10 23 -18 35 -18z
m-3734 10 c3 -5 1 -10 -4 -10 -6 0 -11 5 -11 10 0 6 2 10 4 10 3 0 8 -4 11
-10z m68 3 c-7 -2 -19 -2 -25 0 -7 3 -2 5 12 5 14 0 19 -2 13 -5z m85 0 c-10
-2 -28 -2 -40 0 -13 2 -5 4 17 4 22 1 32 -1 23 -4z m662 -8 c0 -11 -12 -15
-50 -15 -51 0 -59 -11 -37 -47 5 -9 2 -13 -8 -13 -9 0 -14 4 -10 9 3 6 -3 15
-14 20 -24 13 -44 14 -37 2 4 -5 -2 -7 -13 -4 -13 3 -17 11 -13 26 4 15 7 17
11 6 7 -17 57 -18 54 -1 -2 8 14 12 46 12 28 0 53 5 56 10 9 14 15 12 15 -5z
m1720 -6 c0 -5 -6 -9 -13 -9 -8 0 -14 6 -14 14 0 8 6 12 14 9 7 -3 13 -9 13
-14z m70 11 c0 -5 -4 -10 -10 -10 -5 0 -10 5 -10 10 0 6 5 10 10 10 6 0 10 -4
10 -10z m957 4 c-3 -3 -12 -4 -19 -1 -8 3 -5 6 6 6 11 1 17 -2 13 -5z m101 -1
c-10 -2 -26 -2 -35 0 -10 3 -2 5 17 5 19 0 27 -2 18 -5z m-3781 -35 c-3 -7 -5
-2 -5 12 0 14 2 19 5 13 2 -7 2 -19 0 -25z m1001 25 c-10 -2 -26 -2 -35 0 -10
3 -2 5 17 5 19 0 27 -2 18 -5z m1180 -6 c6 3 12 2 12 0 0 -3 -13 -9 -28 -15
-24 -8 -28 -7 -28 8 0 13 5 16 16 11 8 -5 21 -6 28 -4z m79 7 c-3 -3 -12 -4
-19 -1 -8 3 -5 6 6 6 11 1 17 -2 13 -5z m5963 -19 c-7 -9 -15 -13 -18 -10 -3
2 1 11 8 20 7 9 15 13 18 10 3 -2 -1 -11 -8 -20z m-7992 8 c-10 -2 -18 -8 -18
-13 0 -5 -6 -7 -14 -4 -8 3 -28 -2 -45 -11 -17 -8 -31 -11 -31 -6 0 5 -8 12
-17 15 -12 3 -9 4 7 4 14 -1 32 2 40 5 17 7 58 14 80 14 9 1 9 -1 -2 -4z m52
-3 c0 -5 -2 -10 -4 -10 -3 0 -8 5 -11 10 -3 6 -1 10 4 10 6 0 11 -4 11 -10z
m765 0 c-3 -5 -10 -10 -16 -10 -5 0 -9 5 -9 10 0 6 7 10 16 10 8 0 12 -4 9
-10z m254 2 c9 -14 61 -24 61 -12 0 19 16 10 17 -10 1 -14 -4 -20 -18 -20 -10
0 -19 -6 -20 -12 0 -7 -4 -3 -9 9 -7 16 -14 20 -31 16 -15 -4 -20 -3 -15 5 5
8 -4 12 -27 12 -44 0 -58 -26 -22 -40 37 -14 30 -18 -17 -10 -23 5 -44 13 -46
19 -5 16 -29 13 -36 -4 -3 -10 -18 -15 -43 -14 -28 1 -31 3 -13 6 14 3 29 11
33 19 10 17 41 18 69 3 12 -7 18 -7 14 -1 -3 6 0 13 6 15 7 3 -16 7 -52 8
l-65 2 60 6 c108 11 149 11 154 3z m1541 -2 c0 -5 -7 -7 -15 -4 -8 4 -15 8
-15 10 0 2 7 4 15 4 8 0 15 -4 15 -10z m5890 0 c0 -13 -11 -13 -30 0 -12 8
-11 10 8 10 12 0 22 -4 22 -10z m-9010 -27 c0 -13 -3 -13 -15 -3 -8 7 -15 16
-15 21 0 5 7 6 15 3 8 -4 15 -13 15 -21z m110 6 c0 -12 -37 -12 -44 0 -3 4 -3
11 0 14 8 7 44 -4 44 -14z m480 11 c0 -5 -5 -10 -11 -10 -5 0 -7 5 -4 10 3 6
8 10 11 10 2 0 4 -4 4 -10z m683 4 c9 -3 12 -14 9 -31 -5 -25 -6 -25 -18 -8
-10 13 -14 14 -14 5 0 -9 -5 -7 -15 6 -9 12 -14 14 -15 6 0 -7 -4 -10 -10 -7
-5 3 -11 -4 -11 -17 -1 -19 -3 -18 -9 7 -4 17 -8 22 -9 13 -1 -22 -21 -24 -21
-3 0 8 -8 16 -17 17 -10 1 7 4 37 8 30 4 60 7 67 8 6 1 18 0 26 -4z m73 -9
c-3 -10 1 -15 11 -15 9 0 14 -3 10 -6 -3 -3 -15 -3 -26 1 -17 5 -18 9 -8 20
16 19 20 19 13 0z m975 3 c0 -10 2 -10 6 0 7 17 60 15 66 -3 5 -12 2 -12 -18
-3 -18 8 -28 8 -38 0 -7 -6 -32 -14 -55 -18 -51 -8 -66 -24 -23 -24 17 0 31 5
31 10 0 6 9 10 20 10 11 0 20 -4 20 -9 0 -10 -49 -21 -94 -21 -28 0 -31 3 -31
30 -1 22 4 30 16 30 10 0 21 -4 24 -10 3 -5 14 -10 23 -10 14 0 14 2 3 9 -14
9 -12 10 42 20 4 0 7 -5 8 -11z m436 6 c-3 -3 -12 -4 -19 -1 -8 3 -5 6 6 6 11
1 17 -2 13 -5z m195 -16 c-7 -7 -12 -8 -12 -2 0 14 12 26 19 19 2 -3 -1 -11
-7 -17z m98 12 c0 -5 -7 -10 -15 -10 -8 0 -15 5 -15 10 0 6 7 10 15 10 8 0 15
-4 15 -10z m-2247 -7 c-7 -2 -19 -2 -25 0 -7 3 -2 5 12 5 14 0 19 -2 13 -5z
m130 0 c-7 -2 -21 -2 -30 0 -10 3 -4 5 12 5 17 0 24 -2 18 -5z m1677 -8 c0 -8
-4 -15 -8 -15 -5 0 -9 7 -9 15 0 8 4 15 9 15 4 0 8 -7 8 -15z m3315 -51 c-1
-42 -6 -68 -14 -73 -10 -7 -10 -10 -1 -16 7 -4 8 -10 3 -14 -4 -3 -14 -19 -22
-36 l-13 -30 -9 24 c-6 15 -5 28 2 37 9 11 7 14 -7 14 -16 0 -17 2 -4 10 13 8
13 10 -2 10 -23 0 -34 -20 -17 -31 10 -6 10 -9 2 -9 -7 0 -18 9 -25 20 -9 14
-23 20 -48 19 -40 -1 -97 -16 -67 -18 10 -1 15 -5 12 -11 -8 -14 -21 -13 -37
3 -7 7 -26 23 -42 35 l-29 22 110 -1 c93 -1 117 2 150 20 33 16 42 27 47 56 4
19 8 35 9 35 2 0 2 -30 2 -66z m-5695 46 c0 -12 -8 -12 -35 0 -18 8 -17 9 8 9
15 1 27 -3 27 -9z m770 0 c0 -5 -2 -10 -4 -10 -3 0 -8 5 -11 10 -3 6 -1 10 4
10 6 0 11 -4 11 -10z m550 0 c0 -5 -2 -10 -4 -10 -3 0 -8 5 -11 10 -3 6 -1 10
4 10 6 0 11 -4 11 -10z m230 -5 c0 -9 -6 -12 -16 -8 -13 5 -13 7 -2 14 17 11
18 11 18 -6z m115 -6 c-40 -7 -55 -4 -55 9 0 4 21 5 48 3 l47 -5 -40 -7z m284
12 c3 -1 -4 -7 -14 -15 -15 -10 -23 -11 -37 -2 -10 6 -18 14 -18 17 0 5 49 5
69 0z m321 5 c0 -3 -4 -8 -10 -11 -5 -3 -10 -1 -10 4 0 6 5 11 10 11 6 0 10
-2 10 -4z m140 -12 c0 -8 -5 -12 -10 -9 -6 4 -8 11 -5 16 9 14 15 11 15 -7z
m110 -4 c0 -4 -11 -5 -25 -2 -14 2 -25 8 -25 12 0 4 11 5 25 2 14 -2 25 -8 25
-12z m1017 14 c-3 -3 -12 -4 -19 -1 -8 3 -5 6 6 6 11 1 17 -2 13 -5z m3223
-39 c0 -19 -5 -37 -10 -40 -8 -5 -7 -11 0 -20 13 -16 -3 -55 -22 -55 -7 0 -8
22 -4 70 6 54 4 70 -6 71 -7 0 -4 4 7 8 28 12 35 5 35 -34z m2465 -3 c-9 -9
-36 28 -29 40 4 5 13 0 21 -12 8 -12 12 -24 8 -28z m-9399 10 c-22 -5 -30 3
-21 18 5 8 11 7 22 -2 15 -12 14 -13 -1 -16z m304 18 c0 -5 -4 -10 -9 -10 -6
0 -13 5 -16 10 -3 6 1 10 9 10 9 0 16 -4 16 -10z m226 -17 c-10 -10 -19 5 -10
18 6 11 8 11 12 0 2 -7 1 -15 -2 -18z m289 16 c11 -1 -9 -5 -45 -9 -67 -7
-108 0 -55 10 28 5 53 5 100 -1z m1802 5 c-3 -3 -12 -4 -19 -1 -8 3 -5 6 6 6
11 1 17 -2 13 -5z m228 -12 c-3 -3 -11 0 -18 7 -9 10 -8 11 6 5 10 -3 15 -9
12 -12z m725 2 c0 -2 -7 -4 -15 -4 -8 0 -15 4 -15 10 0 5 7 7 15 4 8 -4 15 -8
15 -10z m5090 6 c0 -5 -4 -10 -10 -10 -5 0 -10 5 -10 10 0 6 5 10 10 10 6 0
10 -4 10 -10z m-8520 -10 c0 -6 -25 -9 -57 -8 l-58 1 50 7 c28 4 53 8 58 8 4
1 7 -2 7 -8z m535 0 c7 -12 -12 -12 -40 0 -18 8 -17 9 7 9 15 1 30 -3 33 -9z
m1832 -7 c-9 -9 -20 -13 -24 -9 -4 4 -1 11 7 16 25 16 35 11 17 -7z m450 11
c-3 -3 -12 -4 -19 -1 -8 3 -5 6 6 6 11 1 17 -2 13 -5z m-2617 -14 c0 -5 -5
-10 -11 -10 -5 0 -7 5 -4 10 3 6 8 10 11 10 2 0 4 -4 4 -10z m654 2 c3 -5 -1
-9 -9 -9 -8 0 -15 4 -15 9 0 4 4 8 9 8 6 0 12 -4 15 -8z m-194 -10 c0 -13 -12
-22 -22 -16 -10 6 -1 24 13 24 5 0 9 -4 9 -8z m600 -7 c10 -13 9 -15 -11 -14
-13 0 -18 3 -11 6 6 2 10 9 6 14 -9 15 2 10 16 -6z m470 5 c0 -5 -7 -10 -16
-10 -8 0 -12 5 -9 10 3 6 10 10 16 10 5 0 9 -4 9 -10z m30 0 c0 -5 -4 -10 -10
-10 -5 0 -10 5 -10 10 0 6 5 10 10 10 6 0 10 -4 10 -10z m47 -15 c6 -14 7 -23
2 -19 -13 8 -31 44 -22 44 4 0 13 -11 20 -25z m828 15 c3 -5 -1 -10 -9 -10 -9
0 -16 5 -16 10 0 6 4 10 9 10 6 0 13 -4 16 -10z m4615 0 c0 -5 -4 -10 -10 -10
-5 0 -10 5 -10 10 0 6 5 10 10 10 6 0 10 -4 10 -10z m-6720 -15 c0 -8 -7 -15
-15 -15 -26 0 -18 20 13 29 1 1 2 -6 2 -14z m508 1 c11 4 8 -1 -7 -14 -13 -10
-21 -24 -17 -31 5 -7 1 -9 -8 -5 -9 3 -13 10 -10 15 3 5 -7 9 -21 9 -16 0 -24
4 -20 11 4 6 13 8 21 5 8 -3 20 1 26 8 7 8 14 10 16 6 2 -5 11 -6 20 -4z m612
4 c0 -5 -9 -10 -20 -10 -11 0 -20 5 -20 10 0 6 9 10 20 10 11 0 20 -4 20 -10z
m187 -12 c-3 -8 -6 -5 -6 6 -1 11 2 17 5 13 3 -3 4 -12 1 -19z m1247 -11 c15
-19 26 -40 26 -48 0 -11 2 -11 9 -1 6 10 12 7 24 -12 23 -34 21 -43 -2 -22
-19 17 -19 17 -15 -6 3 -12 -7 1 -22 31 -14 30 -36 63 -48 72 -11 10 -16 18
-9 19 7 0 23 -15 37 -33z m717 16 c11 -13 11 -17 1 -20 -6 -3 -10 -9 -6 -14 7
-12 -7 -11 -26 1 -13 8 -12 10 3 10 9 0 17 3 17 6 0 4 -8 13 -17 20 -16 12
-16 13 -2 14 9 0 23 -7 30 -17z m-3351 -9 c0 -8 -6 -11 -15 -8 -8 4 -15 9 -15
13 0 4 7 8 15 8 8 0 15 -6 15 -13z m637 10 c-3 -3 -12 -4 -19 -1 -8 3 -5 6 6
6 11 1 17 -2 13 -5z m48 -3 c-3 -5 3 -12 12 -14 12 -3 9 -5 -8 -6 -16 -1 -29
5 -33 14 -4 10 1 15 15 15 11 0 18 -4 14 -9z m2550 -1 c-3 -5 -11 -10 -16 -10
-6 0 -7 5 -4 10 3 6 11 10 16 10 6 0 7 -4 4 -10z m175 -6 c0 -8 -4 -12 -10 -9
-5 3 -10 10 -10 16 0 5 5 9 10 9 6 0 10 -7 10 -16z m-2097 -1 c-7 -2 -19 -2
-25 0 -7 3 -2 5 12 5 14 0 19 -2 13 -5z m121 -5 c-3 -4 -9 -8 -15 -8 -5 0 -9
4 -9 8 0 5 7 9 15 9 8 0 12 -4 9 -9z m76 2 c0 -5 -4 -10 -9 -10 -6 0 -13 5
-16 10 -3 6 1 10 9 10 9 0 16 -4 16 -10z m37 4 c-3 -3 -12 -4 -19 -1 -8 3 -5
6 6 6 11 1 17 -2 13 -5z m1026 -9 c-3 -9 -8 -14 -10 -11 -3 3 -2 9 2 15 9 16
15 13 8 -4z m2125 -30 c-2 -11 -7 -12 -18 -4 -11 8 -12 12 -2 16 6 2 13 12 13
21 1 15 2 15 6 0 2 -10 3 -25 1 -33z m-4295 28 c-13 -2 -33 -2 -45 0 -13 2 -3
4 22 4 25 0 35 -2 23 -4z m520 0 c-7 -2 -19 -2 -25 0 -7 3 -2 5 12 5 14 0 19
-2 13 -5z m265 0 c-10 -2 -26 -2 -35 0 -10 3 -2 5 17 5 19 0 27 -2 18 -5z
m-316 -25 c-7 -7 -12 -8 -12 -2 0 6 3 14 7 17 3 4 9 5 12 2 2 -3 -1 -11 -7
-17z m225 16 c-3 -3 -12 -4 -19 -1 -8 3 -5 6 6 6 11 1 17 -2 13 -5z m1973 2
c0 -11 -19 -15 -25 -6 -3 5 1 10 9 10 9 0 16 -2 16 -4z m-2773 -12 c-3 -3 -12
-4 -19 -1 -8 3 -5 6 6 6 11 1 17 -2 13 -5z m203 -4 c-8 -5 -22 -10 -30 -10
-13 0 -13 1 0 10 8 5 22 10 30 10 13 0 13 -1 0 -10z m700 0 c0 -5 -4 -10 -10
-10 -5 0 -10 5 -10 10 0 6 5 10 10 10 6 0 10 -4 10 -10z m13000 0 c0 -5 -2
-10 -4 -10 -3 0 -8 5 -11 10 -3 6 -1 10 4 10 6 0 11 -4 11 -10z m-10600 -10
c0 -5 -4 -10 -10 -10 -5 0 -10 5 -10 10 0 6 5 10 10 10 6 0 10 -4 10 -10z
m3155 0 c-3 -5 -10 -10 -16 -10 -5 0 -9 5 -9 10 0 6 7 10 16 10 8 0 12 -4 9
-10z m-6526 -4 c-12 -10 -79 -16 -79 -6 0 5 19 10 42 10 23 0 39 -2 37 -4z
m101 -17 c-39 -11 -78 -10 -85 1 -4 7 2 9 18 4 14 -3 33 -1 43 4 10 5 25 7 33
4 12 -5 10 -8 -9 -13z m800 11 c0 -5 -7 -10 -16 -10 -8 0 -12 5 -9 10 3 6 10
10 16 10 5 0 9 -4 9 -10z m1064 -6 c3 -8 2 -12 -4 -9 -6 3 -10 10 -10 16 0 14
7 11 14 -7z m2327 -36 l-9 -33 -1 36 c-1 20 2 39 6 43 13 12 15 -10 4 -46z
m121 -35 c-3 -49 -5 -106 -5 -127 1 -22 -2 -34 -7 -27 -5 10 -9 9 -14 -4 -3
-9 -10 -14 -15 -11 -5 4 -9 -13 -8 -36 1 -24 -2 -44 -8 -45 -5 -1 -12 -11 -15
-23 -3 -12 -9 -21 -15 -21 -12 1 -13 34 -1 42 4 4 12 24 16 45 5 22 11 50 14
64 3 14 9 41 12 60 5 32 29 127 39 158 10 28 12 7 7 -75z m5998 77 c0 -5 -4
-10 -10 -10 -5 0 -10 5 -10 10 0 6 5 10 10 10 6 0 10 -4 10 -10z m-10500 -10
c0 -5 -12 -10 -27 -9 l-28 1 25 8 c14 4 26 8 28 9 1 1 2 -3 2 -9z m870 6 c0
-3 -4 -8 -10 -11 -5 -3 -10 -1 -10 4 0 6 5 11 10 11 6 0 10 -2 10 -4z m780 -6
c0 -5 -2 -10 -4 -10 -3 0 -8 5 -11 10 -3 6 -1 10 4 10 6 0 11 -4 11 -10z m623
3 c-7 -2 -19 -2 -25 0 -7 3 -2 5 12 5 14 0 19 -2 13 -5z m1264 -15 c-3 -8 -6
-5 -6 6 -1 11 2 17 5 13 3 -3 4 -12 1 -19z m-3992 2 c-3 -5 -12 -10 -18 -10
-7 0 -6 4 3 10 19 12 23 12 15 0z m-58 -6 c-3 -3 -12 -4 -19 -1 -8 3 -5 6 6 6
11 1 17 -2 13 -5z m966 -1 c-7 -2 -19 -2 -25 0 -7 3 -2 5 12 5 14 0 19 -2 13
-5z m4275 -40 c47 -53 51 -63 23 -63 -10 0 -38 -7 -61 -15 -34 -12 -41 -12
-37 -1 3 7 8 38 12 69 4 32 10 57 14 57 3 0 25 -21 49 -47z m1967 37 c3 -5 -1
-10 -9 -10 -8 0 -18 5 -21 10 -3 6 1 10 9 10 8 0 18 -4 21 -10z m150 -46 c15
-2 33 -8 39 -15 8 -9 -1 -10 -39 -4 -52 7 -65 17 -65 50 0 19 2 18 19 -4 10
-13 31 -25 46 -27z m-3258 30 c-3 -3 -12 -4 -19 -1 -8 3 -5 6 6 6 11 1 17 -2
13 -5z m-3844 -11 c-7 -2 -21 -2 -30 0 -10 3 -4 5 12 5 17 0 24 -2 18 -5z
m462 -3 c3 -5 1 -10 -4 -10 -6 0 -11 5 -11 10 0 6 2 10 4 10 3 0 8 -4 11 -10z
m4945 -10 c-9 -17 -40 -40 -53 -40 -3 0 7 14 21 30 30 34 48 40 32 10z m-5471
6 c-2 -2 -22 -6 -44 -9 -27 -4 -35 -3 -25 3 14 9 79 15 69 6z m414 -3 c-7 -2
-19 -2 -25 0 -7 3 -2 5 12 5 14 0 19 -2 13 -5z m3014 1 c-3 -3 -12 -4 -19 -1
-8 3 -5 6 6 6 11 1 17 -2 13 -5z m113 -3 c0 -11 -69 -20 -76 -10 -2 4 10 10
28 12 18 2 36 5 41 5 4 1 7 -2 7 -7z m-3693 -7 c-3 -3 -12 -4 -19 -1 -8 3 -5
6 6 6 11 1 17 -2 13 -5z m2170 -21 c-9 -9 -20 -13 -24 -9 -4 4 1 14 11 22 25
18 35 8 13 -13z m1560 21 c-3 -3 -12 -4 -19 -1 -8 3 -5 6 6 6 11 1 17 -2 13
-5z m820 0 c-3 -3 -12 -4 -19 -1 -8 3 -5 6 6 6 11 1 17 -2 13 -5z m-4190 -10
c-3 -3 -12 -4 -19 -1 -8 3 -5 6 6 6 11 1 17 -2 13 -5z m1571 -6 c-2 -6 -11
-13 -19 -16 -12 -3 -12 -2 0 6 11 8 10 11 -5 15 -16 4 -15 5 4 6 14 1 22 -4
20 -11z m55 5 c-7 -2 -21 -2 -30 0 -10 3 -4 5 12 5 17 0 24 -2 18 -5z m3953
-30 c-11 -11 -17 4 -9 23 7 18 8 18 11 1 2 -10 1 -21 -2 -24z m-3856 18 c0 -6
-4 -12 -8 -15 -5 -3 -9 1 -9 9 0 8 4 15 9 15 4 0 8 -4 8 -9z m5675 -23 c-10
-31 -25 -47 -25 -26 0 24 11 48 22 48 5 0 6 -10 3 -22z m-301 -21 c93 -50 100
-81 22 -94 l-37 -6 6 39 c6 37 4 40 -37 66 -60 38 -26 34 46 -5z m-5484 9 c0
-3 -4 -8 -10 -11 -5 -3 -10 -1 -10 4 0 6 5 11 10 11 6 0 10 -2 10 -4z m4873
-23 c-34 -54 -51 -74 -58 -64 -10 18 44 91 67 91 5 0 1 -12 -9 -27z m-3712
-66 l20 -42 -20 25 c-11 14 -21 31 -21 38 0 6 -4 12 -10 12 -5 0 -10 5 -10 11
0 19 20 -2 41 -44z m3545 28 c-14 -13 -30 -25 -34 -27 -4 -1 -14 -10 -22 -21
-10 -11 -22 -16 -33 -12 -24 10 -21 20 11 41 74 48 123 60 78 19z m-1891 -5
c3 -6 -1 -7 -9 -4 -18 7 -21 14 -7 14 6 0 13 -4 16 -10z m9922 -6 c-3 -3 -12
-4 -19 -1 -8 3 -5 6 6 6 11 1 17 -2 13 -5z m-14594 -36 c-13 -6 -23 -17 -23
-25 0 -13 -23 -43 -33 -43 -3 0 -7 11 -10 25 -5 30 24 55 63 54 l25 0 -22 -11z
m476 -68 c0 -23 -1 -23 -9 -5 -5 11 -9 31 -9 45 0 23 1 23 9 5 5 -11 9 -31 9
-45z m2637 -93 c8 -23 12 -38 9 -35 -9 8 -85 159 -85 166 1 15 63 -93 76 -131z
m539 93 c-3 -5 -16 -15 -28 -21 -22 -12 -22 -12 -3 10 19 21 43 30 31 11z
m11973 -20 c-7 -10 -14 -17 -17 -15 -4 4 18 35 25 35 2 0 -1 -9 -8 -20z
m-13295 -5 c-3 -9 -8 -14 -10 -11 -3 3 -2 9 2 15 9 16 15 13 8 -4z m-1834 -64
c1 -35 -5 -22 -12 24 -5 28 -4 34 3 20 5 -11 9 -31 9 -44z m4501 55 c0 -3 -4
-8 -10 -11 -5 -3 -10 -1 -10 4 0 6 5 11 10 11 6 0 10 -2 10 -4z m70 -11 c-10
-12 -10 -22 -2 -39 10 -22 7 -25 -51 -50 -82 -35 -90 -34 -82 7 4 17 12 38 19
46 13 17 84 49 110 50 15 1 16 -1 6 -14z m-1467 -32 c-7 -3 -13 -12 -13 -20 0
-9 -2 -14 -5 -11 -4 3 -3 18 1 33 5 20 9 24 18 14 8 -8 8 -13 -1 -16z m1549 6
c-18 -12 -35 -19 -38 -16 -3 3 4 8 15 12 12 3 21 11 21 16 0 5 8 9 18 9 11 0
6 -7 -16 -21z m-395 -27 c3 -21 1 -24 -7 -12 -11 17 -14 57 -3 46 4 -4 9 -19
10 -34z m-457 -1 c0 -12 8 -21 23 -24 17 -3 16 -5 -8 -6 -37 -2 -80 -25 -80
-42 0 -7 -21 -18 -47 -25 -27 -6 -48 -10 -48 -8 0 3 7 20 15 40 11 27 26 40
67 59 65 29 78 30 78 6z m4295 -6 c-31 -26 -92 -51 -102 -42 -5 6 105 66 122
66 6 0 -3 -11 -20 -24z m-6538 9 c14 -4 20 -12 18 -25 -2 -11 2 -19 10 -19 24
0 45 12 45 25 0 7 11 15 25 17 35 7 32 -15 -4 -41 -31 -22 -66 -27 -76 -11 -3
6 -14 10 -25 10 -19 0 -34 -38 -24 -63 3 -8 0 -48 -6 -88 -6 -41 -11 -86 -11
-100 1 -19 -5 -28 -20 -32 -16 -4 -18 -3 -8 9 7 9 13 69 16 160 2 81 6 151 9
156 6 9 20 10 51 2z m3613 -54 c0 -33 -4 -60 -10 -60 -6 0 -10 27 -10 60 0 33
4 60 10 60 6 0 10 -27 10 -60z m635 40 c-3 -5 -11 -10 -16 -10 -6 0 -7 5 -4
10 3 6 11 10 16 10 6 0 7 -4 4 -10z m-3549 -24 c111 -11 196 -27 240 -47 22
-11 51 -19 63 -19 22 0 22 -2 -13 -47 -25 -34 -41 -47 -56 -46 -16 2 -22 -4
-27 -27 -3 -17 -11 -29 -17 -26 -6 3 -29 10 -51 16 -22 6 -53 15 -70 20 -16 5
-47 12 -67 16 -21 3 -38 10 -38 15 0 5 -10 9 -22 9 -38 0 -47 13 -47 65 1 63
8 88 23 82 7 -3 44 -8 82 -11z m2739 -6 c-20 -22 -45 -27 -45 -9 0 6 6 9 12 7
7 -3 19 1 26 9 21 21 27 15 7 -7z m-880 -10 c-3 -5 -12 -10 -18 -10 -7 0 -6 4
3 10 19 12 23 12 15 0z m260 -5 c22 -8 41 -19 43 -24 2 -5 9 -8 15 -6 17 6 31
-4 59 -45 13 -19 31 -37 39 -39 7 -2 34 -8 59 -13 54 -12 73 -26 44 -34 -15
-4 -21 -14 -21 -34 0 -17 5 -27 11 -23 14 9 119 3 130 -8 6 -5 18 -9 27 -9 10
0 20 -9 24 -19 3 -11 21 -26 40 -36 19 -9 35 -19 35 -22 0 -11 -43 -53 -55
-53 -6 0 -11 -14 -10 -32 0 -23 5 -32 19 -34 26 -4 56 17 56 38 0 10 7 19 15
20 8 0 21 1 28 2 6 1 11 -5 9 -13 -2 -8 3 -11 12 -8 9 4 20 -1 25 -11 8 -14
11 -14 11 -2 0 12 3 11 11 -2 12 -22 35 -23 43 -3 5 13 36 22 36 11 0 -2 3
-12 6 -20 5 -12 2 -15 -10 -10 -11 4 -16 0 -16 -13 0 -11 3 -23 8 -27 4 -4 7
-13 7 -19 0 -14 63 -28 71 -15 3 5 14 6 25 3 15 -5 18 -3 12 12 -6 17 -5 17
14 1 11 -10 25 -18 31 -18 7 0 12 -11 12 -23 0 -16 9 -28 26 -35 14 -7 22 -17
18 -23 -5 -8 6 -9 36 -4 38 6 42 5 37 -10 -4 -9 -7 -23 -7 -30 0 -10 -13 -14
-46 -13 -44 1 -63 11 -84 46 -8 14 -11 15 -19 3 -8 -12 -18 -13 -68 -1 -32 7
-79 12 -106 11 -33 -1 -56 4 -75 17 -39 28 -121 62 -148 62 -12 0 -25 4 -28 9
-3 5 -60 48 -126 95 -106 77 -223 184 -315 287 -32 37 -60 103 -50 119 8 14
42 12 90 -5z m226 -8 c-10 -9 -11 -8 -5 6 3 10 9 15 12 12 3 -3 0 -11 -7 -18z
m-1951 9 c0 -3 -4 -8 -10 -11 -5 -3 -10 -1 -10 4 0 6 5 11 10 11 6 0 10 -2 10
-4z m1425 -16 c-3 -5 -12 -10 -18 -10 -7 0 -6 4 3 10 19 12 23 12 15 0z
m-3232 -7 c-7 -2 -21 -2 -30 0 -10 3 -4 5 12 5 17 0 24 -2 18 -5z m4067 -8 c0
-8 -4 -15 -10 -15 -5 0 -10 7 -10 15 0 8 5 15 10 15 6 0 10 -7 10 -15z m-4873
-57 l1 -63 -14 50 c-17 63 -17 75 -1 75 9 0 13 -19 14 -62z m643 58 c0 -2 -18
-6 -40 -8 -22 -2 -40 0 -40 4 0 5 18 8 40 8 22 0 40 -2 40 -4z m3524 -21 c-4
-8 -10 -13 -14 -10 -4 3 -21 -5 -36 -16 -20 -14 -18 -11 6 10 37 34 53 39 44
16z m1821 5 c3 -6 0 -13 -8 -16 -12 -4 -14 -18 -10 -65 4 -41 2 -59 -6 -59 -8
0 -10 -24 -9 -75 2 -47 -1 -74 -7 -72 -5 2 -11 29 -11 60 -1 32 -4 79 -8 106
-4 27 -2 60 3 73 5 12 12 31 15 41 6 19 31 23 41 7z m-3320 -30 c9 -16 11 -30
6 -30 -5 0 -11 8 -15 18 -3 9 -9 23 -12 30 -12 26 6 10 21 -18z m1125 20 c0
-5 -4 -10 -10 -10 -5 0 -10 5 -10 10 0 6 5 10 10 10 6 0 10 -4 10 -10z m160 5
c0 -2 -10 -9 -22 -15 -22 -11 -22 -10 -4 4 21 17 26 19 26 11z m-2243 -37 c-3
-7 -5 -2 -5 12 0 14 2 19 5 13 2 -7 2 -19 0 -25z m2183 2 c-8 -5 -19 -10 -25
-10 -5 0 -3 5 5 10 8 5 20 10 25 10 6 0 3 -5 -5 -10z m830 -4 c0 -3 -4 -8 -10
-11 -5 -3 -10 -1 -10 4 0 6 5 11 10 11 6 0 10 -2 10 -4z m-27 -46 c-3 -11 -9
-20 -14 -20 -12 0 -11 17 1 25 6 4 7 11 4 17 -4 6 -2 8 4 5 5 -4 8 -16 5 -27z
m-1950 -60 c9 -13 17 -37 17 -52 0 -15 10 -43 21 -63 27 -45 13 -69 -20 -36
-12 12 -26 19 -31 16 -18 -11 -10 -44 13 -56 41 -22 45 -37 17 -68 l-19 -23
-30 21 c-16 12 -32 17 -35 12 -8 -12 14 -71 26 -71 5 0 7 -4 3 -9 -3 -6 -17
-6 -35 0 -22 8 -31 19 -36 45 -5 27 1 47 33 106 59 110 68 145 49 190 -9 20
-20 39 -26 43 -5 3 -10 11 -10 16 0 11 33 -27 63 -71z m1301 65 c-10 -8 -23
-15 -28 -15 -6 0 -1 7 10 15 10 8 23 15 28 15 6 0 1 -7 -10 -15z m-309 -25
c-3 -5 -11 -10 -16 -10 -6 0 -7 5 -4 10 3 6 11 10 16 10 6 0 7 -4 4 -10z m355
-10 c-28 -22 -40 -25 -40 -10 0 6 7 10 15 10 8 0 15 5 15 10 0 6 8 10 18 10
14 0 12 -4 -8 -20z m-2370 0 c0 -5 -4 -10 -10 -10 -5 0 -10 5 -10 10 0 6 5 10
10 10 6 0 10 -4 10 -10z m2489 -11 c11 17 55 -20 71 -59 16 -40 6 -49 -23 -22
-26 24 -62 30 -54 9 3 -8 -3 -14 -15 -14 -14 -1 -18 3 -16 20 2 12 9 21 16 20
15 -4 16 24 0 29 -7 3 -9 11 -3 24 8 18 8 18 13 0 3 -13 6 -15 11 -7z m1708
-59 c0 -32 -2 -39 -8 -25 -4 11 -8 32 -8 48 l-1 27 -30 -32 c-40 -44 -38 -28
2 17 36 42 46 35 45 -35z m-5039 36 c-2 -17 -10 -27 -26 -31 -33 -8 -38 0 -18
30 21 33 46 33 44 1z m892 4 c0 -5 -2 -10 -4 -10 -3 0 -8 5 -11 10 -3 6 -1 10
4 10 6 0 11 -4 11 -10z m1451 -24 c18 -9 40 -16 51 -16 22 0 23 -13 3 -34 -8
-8 -15 -24 -15 -36 0 -28 -31 -80 -47 -80 -15 0 -53 36 -53 49 0 6 -12 16 -27
23 -19 9 -29 22 -31 41 -2 15 1 27 7 27 19 0 12 28 -9 35 -11 3 -20 10 -20 14
0 12 106 -5 141 -23z m2746 -8 c-3 -7 -5 -2 -5 12 0 14 2 19 5 13 2 -7 2 -19
0 -25z m63 -38 c0 -58 -3 -70 -16 -70 -14 0 -15 7 -10 38 3 20 6 52 6 70 0 17
5 32 10 32 6 0 10 -30 10 -70z m-4240 6 c0 -5 -6 -3 -14 3 -11 9 -15 9 -19 -1
-4 -9 -6 -7 -6 4 -1 9 5 18 12 21 12 4 27 -10 27 -27z m13320 24 c0 -5 -2 -10
-4 -10 -3 0 -8 5 -11 10 -3 6 -1 10 4 10 6 0 11 -4 11 -10z m-14030 -34 c0 -2
-7 -6 -15 -10 -8 -3 -15 -1 -15 4 0 6 7 10 15 10 8 0 15 -2 15 -4z m326 -33
c-10 -10 -19 5 -10 18 6 11 8 11 12 0 2 -7 1 -15 -2 -18z m67 7 c3 -11 2 -20
-3 -20 -4 0 -10 9 -13 20 -3 11 -2 20 3 20 4 0 10 -9 13 -20z m2284 -6 c-3 -3
-12 -4 -19 -1 -8 3 -5 6 6 6 11 1 17 -2 13 -5z m422 -1 c0 -5 -4 -17 -9 -28
-8 -18 -9 -17 -9 8 -1 15 4 27 9 27 6 0 10 -3 9 -7z m2891 -3 c0 -5 -5 -10
-11 -10 -5 0 -7 5 -4 10 3 6 8 10 11 10 2 0 4 -4 4 -10z m3960 -36 c11 -27 3
-54 -14 -54 -17 0 -36 44 -29 68 6 26 31 18 43 -14z m-9222 -131 c5 -40 5 -73
2 -73 -4 0 -10 25 -14 55 -8 74 -28 145 -40 145 -5 0 -7 -36 -3 -87 3 -52 2
-80 -3 -68 l-9 20 -1 -20 -1 -20 -8 20 c-5 11 -4 25 1 32 6 7 7 39 3 76 l-7
65 26 -5 c17 -4 26 -1 27 8 2 20 17 -65 27 -148z m7264 120 c15 -30 15 -32 -3
-30 -15 1 -19 9 -19 36 0 39 1 38 22 -6z m-3490 -8 c5 -43 -8 -47 -14 -5 -4
26 -1 40 8 40 1 0 4 -16 6 -35z m-4794 4 c12 0 13 -2 3 -6 -11 -5 -11 -7 0
-14 18 -11 -35 -10 -71 1 l-25 7 25 11 c14 6 31 9 38 6 8 -2 21 -4 30 -5z
m2699 5 c-3 -3 -12 -4 -19 -1 -8 3 -5 6 6 6 11 1 17 -2 13 -5z m928 -14 c3 -5
1 -10 -4 -10 -6 0 -11 5 -11 10 0 6 2 10 4 10 3 0 8 -4 11 -10z m2178 -7 c5
-10 -18 -54 -25 -48 -8 8 3 55 13 55 4 0 10 -3 12 -7z m-4317 -22 c-9 -10 -16
-22 -15 -27 5 -19 -24 -69 -66 -116 -47 -53 -56 -72 -28 -61 13 5 15 2 10 -11
-4 -10 -7 -22 -7 -27 0 -5 -6 -9 -14 -9 -15 0 -48 -59 -40 -72 3 -4 -4 -8 -14
-8 -15 0 -22 9 -26 35 -4 20 -13 35 -21 35 -26 0 -27 21 -2 43 14 12 35 43 47
70 22 46 60 83 145 139 49 32 53 33 31 9z m1214 -30 c0 -32 -6 -24 -14 19 -4
25 -3 31 4 20 5 -8 10 -26 10 -39z m908 1 c14 -19 15 -23 3 -41 -7 -11 -13
-10 -34 5 -14 11 -27 29 -30 41 -4 20 -1 22 22 17 14 -4 32 -13 39 -22z m1332
12 c0 -8 -4 -12 -10 -9 -5 3 -10 10 -10 16 0 5 5 9 10 9 6 0 10 -7 10 -16z
m-4003 -26 c-3 -7 -5 -2 -5 12 0 14 2 19 5 13 2 -7 2 -19 0 -25z m1928 2 c-3
-5 -12 -10 -18 -10 -7 0 -6 4 3 10 19 12 23 12 15 0z m1795 -10 c-6 -11 -15
-20 -21 -20 -6 0 -6 7 1 20 6 11 15 20 21 20 6 0 6 -7 -1 -20z m-1136 -2 c-7
-11 -34 -10 -34 1 0 6 9 9 19 8 11 0 17 -5 15 -9z m-694 -2 c0 -2 -7 -7 -16
-10 -8 -3 -12 -2 -9 4 6 10 25 14 25 6z m1983 -21 c16 -14 37 -45 47 -68 15
-33 29 -48 60 -62 23 -10 49 -28 58 -39 9 -12 28 -29 42 -38 14 -9 52 -42 84
-72 33 -31 62 -56 65 -56 3 0 0 5 -7 12 -14 14 -16 58 -3 58 10 0 47 -49 82
-107 10 -18 27 -33 37 -33 10 0 26 -13 35 -30 10 -16 24 -30 31 -30 17 0 33
-38 31 -75 -3 -35 11 -56 30 -49 7 3 32 -1 55 -9 28 -9 37 -16 27 -20 -8 -3
-18 -20 -22 -37 -6 -28 -8 -30 -20 -14 -12 17 -14 17 -37 2 -14 -9 -31 -23
-39 -30 -8 -8 -23 -18 -34 -22 -19 -8 -19 -9 5 -16 l25 -6 -27 -6 c-20 -4 -28
-1 -28 8 0 8 -9 14 -20 14 -11 0 -20 -7 -20 -15 0 -29 -25 -14 -90 53 -36 37
-82 81 -103 99 l-37 32 -57 -20 c-31 -10 -57 -19 -59 -19 -1 0 0 9 3 20 3 11
0 20 -6 20 -6 0 -11 -9 -11 -20 0 -11 -4 -20 -10 -20 -5 0 -10 4 -10 10 0 16
-40 32 -53 22 -7 -5 -28 -13 -47 -17 -31 -7 -33 -6 -21 9 7 9 21 16 30 16 32
-1 131 35 131 48 0 6 4 12 9 12 5 0 7 -9 4 -20 -3 -11 0 -27 7 -35 14 -17 35
-21 25 -5 -4 6 -1 17 5 25 9 11 6 21 -19 47 -22 23 -29 39 -25 55 4 16 -2 32
-21 55 -21 25 -26 28 -25 12 6 -58 1 -57 -70 6 -39 34 -92 85 -118 113 -26 27
-64 66 -84 85 -40 37 -50 79 -25 100 24 20 63 24 80 8 17 -17 32 -22 23 -7 -6
10 62 81 78 81 6 0 24 -12 39 -25z m-1388 5 c3 -5 -1 -10 -9 -10 -9 0 -16 5
-16 10 0 6 4 10 9 10 6 0 13 -4 16 -10z m10136 -13 c-10 -9 -11 -8 -5 6 3 10
9 15 12 12 3 -3 0 -11 -7 -18z m-11442 -40 c12 -21 21 -43 21 -50 0 -14 -60
83 -60 98 0 14 15 -5 39 -48z m666 43 c-3 -5 -14 -10 -23 -9 -14 0 -13 2 3 9
27 11 27 11 20 0z m840 -31 l20 -20 -35 3 c-19 3 -46 -2 -60 -9 -14 -7 -31
-13 -37 -13 -15 0 -17 16 -3 25 6 3 10 15 10 27 0 19 4 20 43 14 23 -4 51 -16
62 -27z m-144 -60 l-9 -44 -1 41 c-1 22 2 44 6 47 12 12 13 1 4 -44z m-2331
22 c0 -5 -9 -7 -20 -4 -12 3 -33 -5 -55 -21 -29 -22 -38 -25 -56 -16 -26 14
-19 22 34 36 53 14 97 17 97 5z m77 3 c-3 -3 -12 -4 -19 -1 -8 3 -5 6 6 6 11
1 17 -2 13 -5z m5023 -34 c0 -5 -7 -10 -16 -10 -8 0 -12 5 -9 10 3 6 10 10 16
10 5 0 9 -4 9 -10z m-3738 -13 c-21 -25 -87 -56 -101 -48 -20 13 -4 31 28 31
15 0 36 7 47 15 24 18 40 19 26 2z m1578 -7 c13 -9 13 -10 0 -10 -8 0 -22 5
-30 10 -13 9 -13 10 0 10 8 0 22 -5 30 -10z m2830 -12 c0 -7 12 -22 28 -34 15
-12 24 -25 20 -29 -11 -11 -67 37 -67 58 -1 9 4 17 9 17 6 0 10 -5 10 -12z
m532 -21 c-12 -15 -10 -133 3 -177 5 -17 4 -22 -2 -15 -17 16 -33 131 -23 164
10 37 20 54 27 47 3 -3 1 -12 -5 -19z m-4387 3 c3 -5 -1 -10 -10 -10 -9 0 -13
5 -10 10 3 6 8 10 10 10 2 0 7 -4 10 -10z m8430 0 c3 -5 1 -10 -4 -10 -6 0
-11 5 -11 10 0 6 2 10 4 10 3 0 8 -4 11 -10z m-5345 -5 c0 -2 -10 -9 -22 -15
-22 -11 -22 -10 -4 4 21 17 26 19 26 11z m-2433 -21 c-3 -3 -12 -4 -19 -1 -8
3 -5 6 6 6 11 1 17 -2 13 -5z m800 -26 c-3 -8 -6 -5 -6 6 -1 11 2 17 5 13 3
-3 4 -12 1 -19z m2558 3 c-3 -6 -11 -11 -17 -11 -6 0 -6 6 2 15 14 17 26 13
15 -4z m-3455 -1 c-19 -13 -30 -13 -30 0 0 6 10 10 23 10 18 0 19 -2 7 -10z
m3847 -12 c-3 -8 -6 -5 -6 6 -1 11 2 17 5 13 3 -3 4 -12 1 -19z m-3811 -25
c-11 -11 -19 6 -11 24 8 17 8 17 12 0 3 -10 2 -21 -1 -24z m-2293 -3 c-3 -11
-9 -20 -14 -20 -10 0 -12 24 -2 33 13 13 21 7 16 -13z m3159 -26 c5 -3 6 -14
3 -25 -5 -16 -1 -19 24 -19 22 0 29 -4 25 -14 -4 -11 -12 -13 -31 -5 -13 5
-49 9 -78 9 -45 0 -57 4 -70 22 -14 21 -14 24 2 36 17 13 103 10 125 -4z
m8838 -24 c-14 -33 -30 -40 -30 -13 0 18 30 56 38 48 3 -2 -1 -18 -8 -35z
m-6746 4 c26 -10 18 -22 -19 -26 -33 -4 -34 -3 -18 14 18 21 16 20 37 12z
m6346 -24 c0 -11 -4 -20 -9 -20 -5 0 -7 9 -4 20 3 11 7 20 9 20 2 0 4 -9 4
-20z m-5707 -25 c-5 -13 -23 -22 -23 -11 0 15 14 35 21 31 4 -3 6 -12 2 -20z
m241 -61 c1 -46 3 -53 19 -48 21 7 21 2 -3 -66 -14 -40 -20 -50 -25 -37 -4 9
-14 17 -22 17 -11 0 -13 13 -11 60 2 36 8 62 15 64 9 4 11 20 7 53 -4 40 -3
45 7 29 6 -10 12 -43 13 -72z m-801 52 c10 -26 -136 -53 -179 -34 -38 18 -28
26 39 32 67 6 118 12 128 15 4 0 9 -5 12 -13z m-888 -46 c-3 -5 -10 -10 -16
-10 -5 0 -9 5 -9 10 0 6 7 10 16 10 8 0 12 -4 9 -10z m-3345 -29 c0 -6 -4 -13
-10 -16 -5 -3 -10 1 -10 9 0 9 5 16 10 16 6 0 10 -4 10 -9z m3220 -41 c0 -5
-5 -10 -11 -10 -5 0 -7 5 -4 10 3 6 8 10 11 10 2 0 4 -4 4 -10z m4515 -9 c-3
-2 0 -11 7 -18 10 -12 6 -14 -28 -8 -62 10 -71 15 -55 25 14 8 84 10 76 1z
m-4506 -28 c-6 -15 -8 -42 -4 -60 6 -31 -8 -47 -18 -20 -6 17 4 80 16 95 15
19 17 14 6 -15z m-1049 -28 c37 1 72 5 78 9 5 3 50 8 98 11 60 3 77 2 54 -4
-19 -5 -51 -17 -70 -27 -22 -11 -52 -18 -80 -16 -25 1 -55 -3 -66 -9 -25 -13
-138 6 -129 22 4 5 13 9 21 9 8 0 15 11 15 28 l2 27 4 -26 c4 -26 5 -27 73
-24z m7737 29 c-3 -3 -12 -4 -19 -1 -8 3 -5 6 6 6 11 1 17 -2 13 -5z m-9823
-38 c-7 -28 -19 -34 -27 -13 -6 17 3 38 14 31 5 -3 9 0 9 7 0 7 2 10 5 7 4 -3
3 -17 -1 -32z m4506 -17 c0 -6 -4 -7 -10 -4 -5 3 -10 11 -10 16 0 6 5 7 10 4
6 -3 10 -11 10 -16z m-4450 -3 c0 -8 -31 -36 -41 -36 -5 0 -1 9 8 20 16 18 33
26 33 16z m2979 -29 c-13 -11 -23 -24 -21 -28 4 -16 -16 -9 -22 7 -11 29 -6
36 19 32 17 -4 25 -1 25 9 0 8 5 11 12 7 8 -5 4 -13 -13 -27z m6962 -30 c-8
-8 -11 -7 -11 4 0 20 13 34 18 19 3 -7 -1 -17 -7 -23z m-11341 13 c0 -5 -5
-10 -11 -10 -5 0 -7 5 -4 10 3 6 8 10 11 10 2 0 4 -4 4 -10z m4570 -61 c0 -17
-4 -28 -10 -24 -5 3 -10 17 -10 31 0 13 5 24 10 24 6 0 10 -14 10 -31z m6187
-21 c-3 -7 -5 -2 -5 12 0 14 2 19 5 13 2 -7 2 -19 0 -25z m162 -10 c0 -13 -3
-17 -6 -10 -2 6 -8 10 -12 8 -4 -3 -8 1 -8 9 0 8 6 15 14 15 7 0 13 -10 12
-22z m-8599 -54 c0 -11 6 -13 21 -9 15 5 19 4 15 -4 -13 -21 -43 -12 -48 14
-3 13 -1 22 3 19 5 -3 9 -12 9 -20z m8570 -4 c0 -5 -2 -10 -4 -10 -3 0 -8 5
-11 10 -3 6 -1 10 4 10 6 0 11 -4 11 -10z m-7980 -36 c0 -8 -4 -12 -10 -9 -5
3 -10 10 -10 16 0 5 5 9 10 9 6 0 10 -7 10 -16z m3266 0 c18 -14 18 -14 -6 -3
-31 14 -36 19 -24 19 6 0 19 -7 30 -16z m4123 1 c-14 -8 -34 -26 -43 -40 -18
-27 -52 -36 -42 -10 3 8 0 15 -7 15 -23 0 83 48 108 49 6 0 -2 -6 -16 -14z
m-6209 -37 c0 -5 -4 -8 -10 -8 -5 0 -10 10 -10 23 0 18 2 19 10 7 5 -8 10 -18
10 -22z m-45 3 c3 -5 1 -12 -5 -16 -5 -3 -10 1 -10 9 0 18 6 21 15 7z m-825
-26 c0 -14 -7 -28 -15 -32 -24 -8 -30 4 -11 22 9 9 16 21 16 26 0 5 2 9 5 9 3
0 5 -11 5 -25z m277 3 c-3 -8 -6 -5 -6 6 -1 11 2 17 5 13 3 -3 4 -12 1 -19z
m9529 -5 c-10 -10 -19 5 -10 18 6 11 8 11 12 0 2 -7 1 -15 -2 -18z m-2726 7
c0 -12 -40 -34 -47 -26 -9 8 17 36 33 36 8 0 14 -4 14 -10z m-475 -56 c-9 -7
-14 -17 -10 -23 3 -6 2 -11 -4 -11 -5 0 -13 5 -16 10 -14 23 -24 7 -20 -32 3
-24 2 -37 -1 -30 -4 9 -14 6 -37 -10 -17 -12 -27 -17 -23 -10 11 18 -8 14 -30
-6 -34 -32 -78 -48 -124 -47 -25 1 -51 -2 -57 -8 -7 -5 -13 -7 -13 -4 0 3 -26
-1 -57 -8 -32 -7 -60 -12 -62 -9 -5 4 9 9 68 24 46 12 260 120 296 150 20 16
57 35 85 43 22 6 26 -14 5 -29z m32 14 c-3 -8 -6 -5 -6 6 -1 11 2 17 5 13 3
-3 4 -12 1 -19z m-5845 -33 c-4 -5 -5 -19 -4 -30 2 -16 1 -17 -7 -5 -5 8 -7
28 -4 43 4 20 8 25 14 16 4 -7 5 -18 1 -24z m6238 25 c0 -5 -5 -10 -11 -10 -5
0 -7 5 -4 10 3 6 8 10 11 10 2 0 4 -4 4 -10z m-320 -9 c0 -24 -13 -38 -30 -34
-17 5 -17 6 -2 24 18 20 32 25 32 10z m273 -25 c-10 -13 -20 -20 -21 -15 -2 5
-8 7 -13 3 -5 -3 -9 -3 -9 0 0 5 49 34 58 36 2 0 -5 -11 -15 -24z m-6934 -78
l-1 -63 -13 55 c-18 70 -18 70 0 70 12 0 15 -13 14 -62z m-784 32 c3 -6 -1 -7
-9 -4 -18 7 -21 14 -7 14 6 0 13 -4 16 -10z m10413 -20 c-7 -11 -15 -15 -17
-9 -2 6 3 15 10 20 20 12 21 11 7 -11z m-8858 0 c0 -5 -4 -10 -10 -10 -5 0
-10 5 -10 10 0 6 5 10 10 10 6 0 10 -4 10 -10z m8700 -16 c0 -13 3 -14 14 -5
17 14 23 7 27 -34 4 -32 -18 -43 -31 -15 -4 8 -12 25 -18 37 -15 28 -15 33 -2
33 6 0 10 -7 10 -16z m-8719 -9 c5 4 6 -1 3 -10 -4 -8 -2 -21 3 -28 5 -6 15
-31 22 -54 12 -44 31 -58 31 -23 0 33 29 12 36 -26 3 -19 10 -37 15 -40 5 -3
9 -14 9 -25 0 -10 5 -19 10 -19 6 0 10 -5 10 -11 0 -5 -4 -7 -10 -4 -5 3 -10
1 -10 -4 0 -6 5 -11 10 -11 6 0 10 -7 10 -15 0 -8 -5 -15 -11 -15 -6 0 -8 -9
-4 -20 4 -11 2 -20 -4 -20 -6 0 -8 -7 -4 -16 5 -14 1 -16 -23 -12 -28 4 -29 2
-29 -35 0 -21 6 -42 14 -46 10 -6 8 -9 -6 -13 -10 -3 -19 -15 -20 -28 -2 -28
-10 -37 -23 -24 -17 17 -38 200 -43 364 -2 85 -2 149 0 142 3 -6 9 -10 14 -7z
m6601 -47 c-7 -7 -12 -8 -12 -2 0 14 12 26 19 19 2 -3 -1 -11 -7 -17z m-8902
-33 c0 -21 -49 -19 -57 1 -3 9 0 20 8 24 17 11 49 -6 49 -25z m2150 20 c-14
-8 -29 -14 -35 -14 -5 0 1 6 15 14 14 8 30 14 35 14 6 0 -1 -6 -15 -14z
m-1965 -24 c-6 -21 -25 -29 -25 -11 0 6 5 10 10 10 6 0 10 8 10 17 0 9 3 14 6
10 3 -3 3 -15 -1 -26z m59 20 c10 -16 -5 -41 -25 -41 -22 0 -23 4 -9 31 11 20
25 25 34 10z m2113 -13 c-3 -8 -6 -5 -6 6 -1 11 2 17 5 13 3 -3 4 -12 1 -19z
m5278 2 c-3 -5 -10 -10 -16 -10 -5 0 -9 5 -9 10 0 6 7 10 16 10 8 0 12 -4 9
-10z m3521 -26 c-4 -9 -9 -15 -11 -12 -3 3 -3 13 1 22 4 9 9 15 11 12 3 -3 3
-13 -1 -22z m-3613 -9 c4 -8 -7 -27 -24 -45 -33 -33 -41 -37 -34 -17 3 7 -4
12 -20 12 -29 0 -33 -11 -7 -18 10 -3 7 -5 -10 -6 -22 -1 -26 2 -21 16 7 17 4
17 -49 -9 -16 -7 -28 -17 -28 -21 0 -24 -41 -45 -110 -56 -41 -7 -77 -15 -80
-20 -12 -17 -68 -38 -81 -30 -9 6 -10 9 -2 9 6 0 9 9 6 20 -4 13 0 20 9 20 28
0 194 58 308 108 128 56 136 58 143 37z m3177 7 c0 -5 -7 -17 -15 -28 -15 -19
-20 -8 -9 20 6 17 24 22 24 8z m-3110 -16 c0 -3 -4 -8 -10 -11 -5 -3 -10 -1
-10 4 0 6 5 11 10 11 6 0 10 -2 10 -4z m200 -78 c0 -6 7 -20 17 -30 18 -20 17
-23 -14 -32 -26 -8 -32 9 -7 18 15 6 14 9 -5 25 -25 22 -27 31 -6 31 8 0 15
-5 15 -12z m-8168 -43 c-2 -14 -8 -25 -13 -25 -12 0 -11 7 1 31 14 26 18 24
12 -6z m494 -26 c4 -8 -1 -9 -16 -4 -19 6 -21 4 -15 -15 6 -20 5 -21 -15 -10
-21 11 -21 12 -3 25 22 17 40 19 49 4z m7731 0 c-24 -14 -82 -31 -73 -21 8 8
66 30 81 31 6 0 2 -4 -8 -10z m-7623 -14 c-4 -8 -8 -15 -10 -15 -2 0 -4 7 -4
15 0 8 4 15 10 15 5 0 7 -7 4 -15z m-655 -50 l0 -20 -9 20 c-5 11 -9 29 -9 40
l0 20 9 -20 c5 -11 9 -29 9 -40z m7381 45 c-8 -5 -23 -10 -32 -10 -22 0 -100
-40 -113 -57 -6 -8 -22 -16 -36 -18 -14 -3 -55 -18 -90 -34 -35 -15 -83 -31
-106 -35 -23 -3 -50 -9 -60 -12 -16 -6 -17 -5 -2 10 8 9 56 32 105 50 49 18
114 45 144 60 50 23 153 53 190 55 13 1 13 0 0 -9z m82 -2 c-9 -9 -15 -9 -24
0 -9 9 -7 12 12 12 19 0 21 -3 12 -12z m4112 -14 c3 -8 2 -12 -4 -9 -6 3 -10
10 -10 16 0 14 7 11 14 -7z m-8682 -29 c3 -14 2 -25 -2 -25 -9 0 -20 25 -20
46 0 23 17 7 22 -21z m4488 21 c0 -2 -7 -7 -16 -10 -8 -3 -12 -2 -9 4 6 10 25
14 25 6z m765 -6 c-3 -5 -14 -10 -23 -10 -15 0 -15 2 -2 10 20 13 33 13 25 0z
m1025 0 c0 -5 -5 -10 -11 -10 -5 0 -7 5 -4 10 3 6 8 10 11 10 2 0 4 -4 4 -10z
m850 -60 c0 -11 -4 -20 -10 -20 -5 0 -10 2 -10 4 0 2 -3 11 -6 20 -4 11 -1 16
10 16 9 0 16 -8 16 -20z m-9833 -26 c-3 -3 -12 -4 -19 -1 -8 3 -5 6 6 6 11 1
17 -2 13 -5z m6743 -34 c-6 -11 -20 -20 -31 -20 -11 0 -33 -13 -49 -29 -16
-16 -31 -26 -34 -24 -3 3 -11 1 -18 -3 -7 -5 -17 -9 -23 -9 -5 -1 -17 -4 -25
-7 -21 -8 -100 -28 -132 -35 -16 -3 -28 -9 -28 -14 0 -5 -9 -9 -21 -9 -11 0
-18 -4 -15 -9 7 -10 -92 -7 -118 4 -14 6 -17 5 -12 -3 5 -8 -1 -12 -15 -12
-13 0 -32 -8 -43 -19 -24 -21 -72 -35 -80 -23 -6 11 -76 2 -76 -9 0 -5 -12 -9
-26 -9 -16 0 -23 -4 -18 -12 5 -8 0 -9 -14 -6 -12 4 -22 2 -22 -3 0 -12 -68
-40 -109 -43 -18 -2 -37 -10 -42 -17 -5 -8 -9 -9 -9 -3 0 17 -121 7 -139 -11
-9 -8 -16 -27 -17 -43 -1 -15 -3 -32 -3 -38 -1 -15 -61 -12 -61 4 0 6 -12 12
-26 12 -14 0 -23 4 -19 10 3 5 2 10 -4 10 -5 0 -13 -5 -16 -10 -3 -6 -15 -10
-26 -10 -13 0 -18 -4 -13 -12 4 -7 3 -8 -5 -4 -6 4 -18 0 -27 -8 -19 -20 -30
-20 -37 -2 -7 18 -58 12 -180 -20 -59 -15 -87 -19 -84 -11 5 18 154 68 228 77
36 4 124 25 195 47 150 47 278 83 314 89 121 21 279 62 365 94 28 10 84 28
125 40 78 22 166 51 285 94 39 14 80 26 93 26 20 0 21 -3 12 -20z m-5015 -10
c3 -5 1 -10 -4 -10 -6 0 -11 5 -11 10 0 6 2 10 4 10 3 0 8 -4 11 -10z m4785 0
c0 -5 -5 -10 -11 -10 -5 0 -7 5 -4 10 3 6 8 10 11 10 2 0 4 -4 4 -10z m215
-30 c4 -7 13 -7 25 0 16 8 18 8 14 -4 -4 -11 -19 -15 -49 -14 -35 0 -41 3 -32
14 14 16 33 18 42 4z m98 3 c-7 -2 -19 -2 -25 0 -7 3 -2 5 12 5 14 0 19 -2 13
-5z m-6103 -43 c0 -5 -10 -15 -22 -21 -23 -12 -23 -12 -4 10 21 23 26 26 26
11z m1850 -14 c0 -3 -4 -8 -10 -11 -5 -3 -10 -1 -10 4 0 6 5 11 10 11 6 0 10
-2 10 -4z m8620 -86 c0 -5 -2 -10 -4 -10 -3 0 -8 5 -11 10 -3 6 -1 10 4 10 6
0 11 -4 11 -10z m207 -22 c-3 -8 -6 -5 -6 6 -1 11 2 17 5 13 3 -3 4 -12 1 -19z
m3 -38 c0 -5 -4 -10 -10 -10 -5 0 -10 5 -10 10 0 6 5 10 10 10 6 0 10 -4 10
-10z m-869 -80 c12 0 19 -7 19 -20 0 -11 -4 -20 -10 -20 -5 0 -10 -13 -10 -30
0 -20 -5 -30 -15 -30 -8 0 -15 4 -15 9 0 5 -7 17 -16 26 -14 13 -15 21 -5 41
6 14 11 37 12 52 l1 27 10 -27 c6 -17 17 -28 29 -28z m-1621 -49 c0 -5 -7 -12
-16 -15 -14 -5 -15 -4 -4 9 14 17 20 19 20 6z m-3526 -66 c9 -25 -5 -45 -31
-45 -17 0 -23 -5 -21 -16 2 -10 -3 -19 -11 -22 -10 -3 -12 1 -8 17 3 11 1 21
-4 21 -22 0 -6 18 21 24 17 3 30 9 29 13 -4 26 15 32 25 8z m3322 -53 c-12
-11 -18 7 -10 30 l8 23 4 -23 c2 -13 1 -26 -2 -30z m2134 21 c0 -5 -4 -15 -10
-23 -11 -18 -25 -7 -17 15 6 15 27 21 27 8z m-5565 -13 c-3 -5 -11 -10 -16
-10 -6 0 -7 5 -4 10 3 6 11 10 16 10 6 0 7 -4 4 -10z m-166 -21 c-8 -5 -23 -9
-34 -8 -18 0 -17 1 5 13 26 15 52 10 29 -5z m3671 -41 c0 -11 -5 -15 -14 -12
-16 6 -25 32 -18 53 4 11 8 11 18 -4 8 -10 14 -27 14 -37z"/>
<path d="M12740 5170 c0 -5 5 -10 10 -10 6 0 10 5 10 10 0 6 -4 10 -10 10 -5
0 -10 -4 -10 -10z"/>
<path d="M10167 3093 c-4 -3 -7 -16 -7 -27 1 -21 1 -21 15 -2 8 11 15 23 15
28 0 10 -14 11 -23 1z"/>
<path d="M5080 3105 c0 -8 5 -15 10 -15 6 0 10 7 10 15 0 8 -4 15 -10 15 -5 0
-10 -7 -10 -15z"/>
<path d="M4358 3093 c7 -3 16 -2 19 1 4 3 -2 6 -13 5 -11 0 -14 -3 -6 -6z"/>
<path d="M6368 2454 c-16 -8 -28 -23 -28 -33 0 -29 47 -15 55 16 8 33 5 34
-27 17z"/>
<path d="M8945 2065 l-30 -25 25 -1 c14 0 19 -3 12 -6 -6 -2 -9 -9 -6 -14 3
-6 12 -2 19 8 10 13 10 20 2 25 -8 5 -6 12 8 22 11 9 16 15 10 15 -5 0 -23
-11 -40 -24z"/>
<path d="M8872 2030 c0 -14 2 -19 5 -12 2 6 2 18 0 25 -3 6 -5 1 -5 -13z"/>
<path d="M7218 2283 c7 -3 16 -2 19 1 4 3 -2 6 -13 5 -11 0 -14 -3 -6 -6z"/>
<path d="M7292 2253 c-6 -2 -10 -9 -6 -14 8 -14 21 -11 28 6 6 15 1 17 -22 8z"/>
<path d="M6293 2033 c-11 -10 -25 -30 -31 -46 l-12 -27 30 21 c16 12 27 26 24
31 -3 5 0 15 6 23 17 21 6 19 -17 -2z"/>
<path d="M6225 1940 c-3 -5 -1 -10 4 -10 6 0 11 5 11 10 0 6 -2 10 -4 10 -3 0
-8 -4 -11 -10z"/>
<path d="M6200 1905 c-7 -9 -10 -18 -7 -21 3 -3 10 4 17 15 13 25 8 27 -10 6z"/>
<path d="M9890 1740 c0 -7 -7 -10 -15 -6 -10 4 -15 -1 -15 -14 0 -11 5 -20 11
-20 5 0 7 -5 4 -10 -9 -14 5 -51 16 -44 5 3 9 11 8 17 -4 29 2 46 17 49 14 3
13 6 -5 22 -13 12 -21 15 -21 6z"/>
<path d="M12346 1535 c-3 -8 -1 -15 4 -15 6 0 10 7 10 15 0 8 -2 15 -4 15 -2
0 -6 -7 -10 -15z"/>
<path d="M14895 730 c3 -5 13 -10 21 -10 8 0 12 5 9 10 -3 6 -13 10 -21 10 -8
0 -12 -4 -9 -10z"/>
<path d="M14040 469 c0 -5 5 -7 10 -4 6 3 10 8 10 11 0 2 -4 4 -10 4 -5 0 -10
-5 -10 -11z"/>
<path d="M14008 463 c7 -3 16 -2 19 1 4 3 -2 6 -13 5 -11 0 -14 -3 -6 -6z"/>
<path d="M19165 10201 c3 -5 -5 -11 -17 -13 -38 -5 -36 -44 4 -68 18 -11 36
-20 41 -20 4 0 7 25 7 55 0 49 -2 55 -21 55 -11 0 -18 -4 -14 -9z"/>
<path d="M19028 10153 c-16 -4 -34 -33 -20 -33 4 0 18 9 32 20 24 19 22 22
-12 13z"/>
<path d="M18260 9709 c0 -11 7 -19 17 -19 9 0 13 3 10 7 -4 3 -3 11 3 17 6 8
3 12 -11 13 -13 1 -19 -5 -19 -18z"/>
<path d="M18257 9653 c-13 -12 -7 -23 12 -23 26 0 35 16 15 24 -19 7 -19 7
-27 -1z"/>
<path d="M18330 9630 c0 -5 4 -10 9 -10 6 0 13 5 16 10 3 6 -1 10 -9 10 -9 0
-16 -4 -16 -10z"/>
<path d="M16855 8784 c0 -30 31 -52 48 -35 8 8 5 11 -11 11 -14 0 -20 5 -16
13 3 8 -1 19 -9 25 -10 9 -13 6 -12 -14z"/>
<path d="M14018 6593 c7 -3 16 -2 19 1 4 3 -2 6 -13 5 -11 0 -14 -3 -6 -6z"/>
<path d="M12520 5120 c0 -5 -10 -10 -22 -11 -23 0 -23 0 1 -10 18 -7 27 -6 33
3 11 18 10 28 -2 28 -5 0 -10 -4 -10 -10z"/>
<path d="M12510 5000 c-13 -8 -12 -10 3 -10 9 0 17 5 17 10 0 12 -1 12 -20 0z"/>
<path d="M12516 4933 c-6 -14 -5 -15 5 -6 7 7 10 15 7 18 -3 3 -9 -2 -12 -12z"/>
<path d="M12411 4864 c0 -11 3 -14 6 -6 3 7 2 16 -1 19 -3 4 -6 -2 -5 -13z"/>
<path d="M12188 4663 c7 -3 16 -2 19 1 4 3 -2 6 -13 5 -11 0 -14 -3 -6 -6z"/>
<path d="M12148 4653 c7 -3 16 -2 19 1 4 3 -2 6 -13 5 -11 0 -14 -3 -6 -6z"/>
<path d="M12240 4621 c0 -5 9 -7 20 -4 11 3 20 7 20 9 0 2 -9 4 -20 4 -11 0
-20 -4 -20 -9z"/>
<path d="M11837 4153 c-4 -3 -7 -11 -7 -17 0 -6 5 -5 12 2 6 6 9 14 7 17 -3 3
-9 2 -12 -2z"/>
<path d="M11867 4093 c-11 -10 -8 -43 3 -43 6 0 10 11 10 25 0 26 -2 29 -13
18z"/>
<path d="M11715 3960 c-3 -5 -1 -10 4 -10 6 0 11 5 11 10 0 6 -2 10 -4 10 -3
0 -8 -4 -11 -10z"/>
<path d="M11048 3803 c7 -3 16 -2 19 1 4 3 -2 6 -13 5 -11 0 -14 -3 -6 -6z"/>
<path d="M10740 3730 c-12 -8 -10 -10 8 -10 13 0 20 4 17 10 -7 12 -6 12 -25
0z"/>
<path d="M10255 3600 c3 -5 8 -10 11 -10 2 0 4 5 4 10 0 6 -5 10 -11 10 -5 0
-7 -4 -4 -10z"/>
<path d="M9868 3558 c9 -9 15 -9 24 0 9 9 7 12 -12 12 -19 0 -21 -3 -12 -12z"/>
<path d="M9708 3483 c7 -3 16 -2 19 1 4 3 -2 6 -13 5 -11 0 -14 -3 -6 -6z"/>
<path d="M8758 3445 c-2 -19 0 -35 4 -35 4 0 8 16 8 35 0 19 -2 35 -4 35 -2 0
-6 -16 -8 -35z"/>
<path d="M9067 3464 c-4 -4 -7 -14 -7 -23 0 -11 3 -12 11 -4 6 6 10 16 7 23
-2 6 -7 8 -11 4z"/>
<path d="M9380 3460 c0 -5 7 -10 15 -10 8 0 15 5 15 10 0 6 -7 10 -15 10 -8 0
-15 -4 -15 -10z"/>
<path d="M9505 3450 c-3 -5 -2 -10 4 -10 5 0 13 5 16 10 3 6 2 10 -4 10 -5 0
-13 -4 -16 -10z"/>
<path d="M8915 3420 c-3 -5 3 -10 15 -10 12 0 18 5 15 10 -3 6 -10 10 -15 10
-5 0 -12 -4 -15 -10z"/>
<path d="M8960 3400 c0 -5 9 -10 21 -10 11 0 17 5 14 10 -3 6 -13 10 -21 10
-8 0 -14 -4 -14 -10z"/>
<path d="M9040 3399 c0 -5 5 -7 10 -4 6 3 10 8 10 11 0 2 -4 4 -10 4 -5 0 -10
-5 -10 -11z"/>
<path d="M8520 3370 c0 -5 5 -10 10 -10 6 0 10 5 10 10 0 6 -4 10 -10 10 -5 0
-10 -4 -10 -10z"/>
<path d="M5965 3350 c-3 -5 3 -10 14 -10 12 0 21 5 21 10 0 6 -6 10 -14 10 -8
0 -18 -4 -21 -10z"/>
<path d="M4958 3309 c17 -15 52 -20 52 -7 0 8 -12 13 -29 13 -17 0 -27 -3 -23
-6z"/>
<path d="M7714 3308 c-3 -4 6 -8 20 -8 14 0 26 4 26 9 0 11 -39 10 -46 -1z"/>
<path d="M7278 3303 c7 -3 16 -2 19 1 4 3 -2 6 -13 5 -11 0 -14 -3 -6 -6z"/>
<path d="M5986 3291 c-19 -7 -19 -8 2 -13 15 -4 22 -2 22 8 0 8 -1 14 -2 13
-2 0 -12 -4 -22 -8z"/>
<path d="M6031 3281 c-9 -6 -10 -11 -2 -15 13 -8 31 1 31 15 0 11 -11 11 -29
0z"/>
<path d="M5620 3270 c0 -5 7 -10 15 -10 8 0 15 5 15 10 0 6 -7 10 -15 10 -8 0
-15 -4 -15 -10z"/>
<path d="M5710 3271 c0 -6 5 -13 10 -16 6 -3 10 1 10 9 0 9 -4 16 -10 16 -5 0
-10 -4 -10 -9z"/>
<path d="M6660 3270 c0 -5 5 -10 10 -10 6 0 10 5 10 10 0 6 -4 10 -10 10 -5 0
-10 -4 -10 -10z"/>
<path d="M5975 3260 c3 -5 8 -10 11 -10 2 0 4 5 4 10 0 6 -5 10 -11 10 -5 0
-7 -4 -4 -10z"/>
<path d="M5670 3251 c0 -5 5 -13 10 -16 6 -3 10 -2 10 4 0 5 -4 13 -10 16 -5
3 -10 2 -10 -4z"/>
<path d="M5920 3250 c0 -3 5 -12 10 -20 7 -12 12 -12 22 -2 9 9 9 12 -2 12
-13 0 -13 2 0 10 12 7 10 9 -8 7 -12 0 -22 -4 -22 -7z"/>
<path d="M3908 3243 c7 -3 16 -2 19 1 4 3 -2 6 -13 5 -11 0 -14 -3 -6 -6z"/>
<path d="M6740 3238 c0 -12 7 -18 23 -17 15 0 17 2 7 6 -8 3 -18 11 -22 17 -5
7 -8 4 -8 -6z"/>
<path d="M3183 3232 c-13 -2 -23 -8 -23 -13 0 -13 37 -11 45 2 9 14 5 16 -22
11z"/>
<path d="M3280 3230 c0 -5 5 -10 10 -10 6 0 10 5 10 10 0 6 -4 10 -10 10 -5 0
-10 -4 -10 -10z"/>
<path d="M5538 3233 c12 -2 30 -2 40 0 9 3 -1 5 -23 4 -22 0 -30 -2 -17 -4z"/>
<path d="M5733 3233 c9 -2 23 -2 30 0 6 3 -1 5 -18 5 -16 0 -22 -2 -12 -5z"/>
<path d="M5970 3230 c0 -5 5 -10 10 -10 6 0 10 5 10 10 0 6 -4 10 -10 10 -5 0
-10 -4 -10 -10z"/>
<path d="M3389 3225 c-1 -3 -2 -8 -3 -12 -1 -5 -5 -14 -9 -20 -5 -7 -4 -13 0
-13 12 0 42 37 36 44 -8 7 -23 8 -24 1z"/>
<path d="M3514 3217 c3 -10 6 -20 6 -22 0 -2 9 -1 20 2 11 3 20 10 20 15 0 6
-6 8 -14 5 -7 -3 -19 0 -26 6 -10 10 -12 8 -6 -6z"/>
<path d="M5168 3223 c7 -3 16 -2 19 1 4 3 -2 6 -13 5 -11 0 -14 -3 -6 -6z"/>
<path d="M5378 3223 c6 -2 18 -2 25 0 6 3 1 5 -13 5 -14 0 -19 -2 -12 -5z"/>
<path d="M4388 3195 c-3 -14 -1 -25 3 -25 5 0 9 11 9 25 0 14 -2 25 -4 25 -2
0 -6 -11 -8 -25z"/>
<path d="M5240 3206 c0 -19 28 -35 51 -29 29 8 71 -6 62 -20 -5 -8 -2 -8 9 1
9 7 31 11 50 9 18 -2 25 -2 16 0 -10 2 -18 9 -18 15 0 5 7 8 15 4 8 -3 22 -3
30 0 35 14 9 21 -82 23 -54 1 -106 4 -115 7 -12 3 -18 0 -18 -10z m153 -13
c-7 -2 -19 -2 -25 0 -7 3 -2 5 12 5 14 0 19 -2 13 -5z"/>
<path d="M6210 3210 c0 -5 5 -10 11 -10 5 0 7 5 4 10 -3 6 -8 10 -11 10 -2 0
-4 -4 -4 -10z"/>
<path d="M2913 3203 c-7 -2 -13 -9 -13 -14 0 -14 26 -10 40 6 10 12 10 15 -1
14 -8 0 -20 -3 -26 -6z"/>
<path d="M3660 3206 c0 -9 30 -14 35 -6 4 6 -3 10 -14 10 -12 0 -21 -2 -21 -4z"/>
<path d="M4025 3199 c-10 -15 2 -24 17 -11 7 5 24 12 38 15 19 3 16 5 -12 6
-20 0 -40 -4 -43 -10z"/>
<path d="M4125 3200 c-18 -8 -17 -9 7 -9 15 -1 30 4 33 9 7 12 -12 12 -40 0z"/>
<path d="M5003 3203 c-7 -2 -13 -9 -13 -15 0 -6 8 -7 18 -3 9 4 40 11 67 15
l50 8 -55 0 c-30 0 -61 -2 -67 -5z"/>
<path d="M5148 3203 c12 -2 22 -11 22 -19 0 -8 10 -14 26 -14 14 0 23 -4 19
-10 -3 -5 -1 -10 4 -10 14 0 14 13 0 27 -6 6 -19 9 -28 5 -14 -5 -14 -4 -2 11
12 15 10 17 -25 16 -23 -1 -30 -3 -16 -6z"/>
<path d="M5935 3201 l20 -8 -20 -5 c-11 -3 0 -6 25 -7 29 0 40 2 31 8 -11 7
-11 9 0 14 8 3 -6 5 -31 6 -32 0 -39 -3 -25 -8z"/>
<path d="M8252 3190 c0 -14 2 -19 5 -12 2 6 2 18 0 25 -3 6 -5 1 -5 -13z"/>
<path d="M2998 3193 c7 -3 16 -2 19 1 4 3 -2 6 -13 5 -11 0 -14 -3 -6 -6z"/>
<path d="M3040 3186 c0 -9 5 -16 10 -16 6 0 10 4 10 9 0 6 -4 13 -10 16 -5 3
-10 -1 -10 -9z"/>
<path d="M4560 3190 c0 -5 7 -10 16 -10 8 0 12 5 9 10 -3 6 -10 10 -16 10 -5
0 -9 -4 -9 -10z"/>
<path d="M5486 3186 c7 -19 38 -22 32 -3 -3 6 -12 13 -21 15 -12 2 -15 -1 -11
-12z"/>
<path d="M3660 3180 c0 -5 5 -10 11 -10 5 0 7 5 4 10 -3 6 -8 10 -11 10 -2 0
-4 -4 -4 -10z"/>
<path d="M2983 3173 c9 -2 25 -2 35 0 9 3 1 5 -18 5 -19 0 -27 -2 -17 -5z"/>
<path d="M3735 3170 c3 -5 11 -10 16 -10 6 0 7 5 4 10 -3 6 -11 10 -16 10 -6
0 -7 -4 -4 -10z"/>
</g>
</svg>
